<?xml version="1.0" encoding="UTF-8"?>
<svg version="1.1" xmlns="http://www.w3.org/2000/svg" width="5000" height="5000">
<path d="M0 0 C4.47143609 0.4045585 6.84292335 3.54648036 9.75 6.625 C12.92828447 9.94622318 16.12277417 13.1487078 19.6237793 16.13256836 C24.38131909 20.27291784 28.83257909 24.6886627 33.28515625 29.15234375 C34.575037 30.44078941 34.575037 30.44078941 35.89097595 31.75526428 C37.69815861 33.56177015 39.50409392 35.36952462 41.30883789 37.1784668 C44.05438393 39.9293681 46.80522546 42.67489221 49.55664062 45.41992188 C51.3206332 47.18457532 53.0843155 48.94953897 54.84765625 50.71484375 C55.66138199 51.52654526 56.47510773 52.33824677 57.31349182 53.17454529 C61.53511902 57.41335466 65.60586212 61.72131604 69.49143982 66.27125549 C71.85936256 68.98479221 74.42052406 71.489494 77 74 C80.92040759 77.81558386 84.58170051 81.76955221 88.16113281 85.90722656 C91.30474822 89.48490464 94.59577318 92.92203931 97.875 96.375 C103.67350933 102.50830699 109.39036242 108.69324241 115 115 C116.54096076 116.70897011 118.08263888 118.41729363 119.625 120.125 C125.91465033 127.11831172 132.06039991 134.22790673 138.17504883 141.37402344 C141.93349649 145.76380683 145.71172762 150.13594198 149.5 154.5 C166.72881778 174.3617847 166.72881778 174.3617847 174.5390625 183.9765625 C176.99865278 186.99834484 179.4745537 190.00603232 181.9543457 193.01123047 C192.66856522 205.99648577 203.30864066 219.0309937 213.67041016 232.29980469 C215.43086172 234.55095869 217.19911327 236.79592398 218.96728516 239.04101562 C221.31549894 242.02422733 223.65792553 245.01196751 226 248 C226.79446533 249.01271973 226.79446533 249.01271973 227.60498047 250.04589844 C236.24986871 261.07601862 244.71941085 272.22709151 253.10009766 283.45898438 C255.00233166 286.00311847 256.91198596 288.54149963 258.82421875 291.078125 C266.47433604 301.23122184 274.00174871 311.46141192 281.41162109 321.79101562 C283.00410124 324.00570366 284.60421683 326.21465684 286.20703125 328.421875 C293.65313463 338.68042452 300.96378624 349.02715413 308.20507812 359.43115234 C309.93391525 361.90542115 311.67589424 364.36984003 313.421875 366.83203125 C327.25779753 386.42534847 340.29625449 406.560116 353.44042969 426.62030029 C354.8200847 428.72547286 356.20072274 430.82999421 357.58203125 432.93408203 C375.7080042 460.54860228 393.11754679 488.6083129 410 517 C410.50563477 517.84916992 411.01126953 518.69833984 411.53222656 519.57324219 C429.49072608 549.75737858 446.74182786 580.32161056 463.47998047 611.19824219 C464.51364253 613.10352742 465.54919535 615.00778783 466.58642578 616.91113281 C488.13403369 656.45687696 508.73157851 696.6575228 527.44628906 737.62353516 C529.03472772 741.07546894 530.64971196 744.51375231 532.2734375 747.94921875 C552.10756495 789.94719656 570.22748783 832.75807905 587.20819092 875.98461914 C587.74587664 877.35318329 588.28418777 878.72150185 588.82305908 880.08959961 C619.34211249 957.58697501 645.08916274 1036.66476415 667 1117 C667.24729858 1117.90455933 667.49459717 1118.80911865 667.74938965 1119.74108887 C697.25479719 1227.77466235 717.78879838 1338.83294436 736.85284424 1555.11328125 C736.99763669 1557.95363948 737.1532341 1560.79320474 737.31201172 1563.6328125 C740.97978235 1630.10226072 740.78344062 1697.5420039 737 1764 C736.86974451 1766.3647435 736.73953806 1768.7294897 736.609375 1771.09423828 C732.4891915 1844.78287144 724.54968323 1918.10951358 713 1991 C712.78627747 1992.35834961 712.78627747 1992.35834961 712.5682373 1993.74414062 C703.55755124 2050.94441716 691.73207918 2107.75622446 678 2164 C677.76686096 2164.95729004 677.53372192 2165.91458008 677.29351807 2166.90087891 C653.49959272 2264.4235641 622.60830806 2360.66008064 584.93109131 2453.69958496 C583.97745784 2456.05569414 583.02685478 2458.41300989 582.07666016 2460.77050781 C567.34890409 2497.2723874 551.59512608 2533.3097491 535 2569 C534.66071472 2569.73077759 534.32142944 2570.46155518 533.97186279 2571.21447754 C524.45904512 2591.69438735 514.59658145 2611.98905319 504.5 2632.1875 C503.99911865 2633.1902597 503.4982373 2634.19301941 502.98217773 2635.22616577 C496.47713371 2648.23478246 489.83323954 2661.16077524 483 2674 C482.67795593 2674.60637299 482.35591187 2675.21274597 482.02410889 2675.8374939 C474.63532269 2689.74657205 467.06701794 2703.5443533 459.2734375 2717.23046875 C457.02628621 2721.17884179 454.80460882 2725.14013183 452.6015625 2729.11328125 C444.89504702 2743.00391682 436.87426387 2756.66857559 428.64990234 2770.25830078 C426.41942573 2773.96476015 424.23918538 2777.69930957 422.0625 2781.4375 C412.23230394 2798.23412379 401.92419219 2814.7386805 391.23486328 2831.00048828 C387.28735832 2837.00746959 383.43319094 2843.06122942 379.65205383 2849.17393494 C376.95928873 2853.50837646 374.18868532 2857.78102205 371.34765625 2862.01953125 C370.91773376 2862.66255692 370.48781128 2863.30558258 370.04486084 2863.96809387 C365.30162011 2871.05587627 360.53266567 2878.12627467 355.75 2885.1875 C355.29634064 2885.85742981 354.84268127 2886.52735962 354.37527466 2887.21759033 C347.19436988 2897.81617019 339.93701685 2908.35642294 332.546875 2918.81054688 C331.0065185 2920.99077369 329.47137586 2923.17458515 327.9375 2925.359375 C324.97056795 2929.58163999 321.9901252 2933.79413104 319 2938 C318.49678223 2938.70801758 317.99356445 2939.41603516 317.47509766 2940.14550781 C310.50142511 2949.93458361 303.33622711 2959.5584784 296.02368164 2969.09692383 C291.50820228 2974.99401724 287.07312015 2980.94333426 282.6875 2986.9375 C277.37640859 2994.18706538 271.9249199 3001.30111021 266.32666016 3008.33056641 C264.03823661 3011.21025728 261.77057886 3014.10623507 259.5 3017 C258.57945636 3018.17059594 257.65888351 3019.34116891 256.73828125 3020.51171875 C254.93854228 3022.80177327 253.14465891 3025.09622732 251.35546875 3027.39453125 C244.57801635 3036.08615938 237.60333374 3044.60393269 230.57470703 3053.09326172 C228.47508831 3055.63559075 226.39353488 3058.19244908 224.3125 3060.75 C220.62179367 3065.26923224 216.8597802 3069.72412231 213.08081055 3074.16943359 C210.22094589 3077.53908071 207.4071871 3080.94057856 204.625 3084.375 C199.45601189 3090.72126654 194.07700806 3096.87923802 188.69824219 3103.04736328 C187.01427371 3104.98358811 185.3379238 3106.92612794 183.6640625 3108.87109375 C177.68825822 3115.80928355 171.62874263 3122.645986 165.4140625 3129.37109375 C163.40875865 3131.55486315 161.4413393 3133.75963925 159.5 3136 C155.70702776 3140.37650643 151.77343153 3144.62169764 147.84375 3148.875 C145.73177953 3151.17569975 143.6723941 3153.51669678 141.625 3155.875 C138.0164114 3160.01368595 134.27753997 3164.01573602 130.5 3168 C129.08570298 3169.49587206 127.67164618 3170.99197126 126.2578125 3172.48828125 C125.54786133 3173.23932129 124.83791016 3173.99036133 124.10644531 3174.76416016 C122.10215004 3176.8915751 120.10750851 3179.02748286 118.1171875 3181.16796875 C111.48557004 3188.29489374 104.79074091 3195.32602346 97.82958984 3202.13354492 C95.02666096 3204.89186824 92.36010901 3207.70472001 89.80249023 3210.69311523 C86.01873696 3215.0369045 82.01944083 3219.12509142 77.94140625 3223.19140625 C77.1934227 3223.94034653 76.44543915 3224.6892868 75.67478943 3225.46092224 C74.10367536 3227.03271225 72.53131608 3228.60325849 70.95776367 3230.17260742 C68.56900154 3232.55601304 66.18562554 3234.94471068 63.80273438 3237.33398438 C62.2659455 3238.87011237 60.7288464 3240.40593009 59.19140625 3241.94140625 C58.48907364 3242.64576309 57.78674103 3243.35011993 57.06312561 3244.07582092 C53.08677018 3248.03367659 49.0037689 3251.80026431 44.75669861 3255.46568298 C42.67725773 3257.28188612 40.71506746 3259.18621119 38.78125 3261.15625 C37.72357422 3262.22552734 37.72357422 3262.22552734 36.64453125 3263.31640625 C35.93683594 3264.03699219 35.22914063 3264.75757812 34.5 3265.5 C29.72625881 3270.36069458 24.89799068 3275.0459151 19.73242188 3279.49023438 C17.72485159 3281.23978548 15.84932285 3283.0846299 14 3285 C11.52286087 3287.56560838 8.94120754 3289.94484032 6.25 3292.28125 C2.06455629 3295.91638537 -1.97585255 3299.68806345 -6 3303.5 C-10.64354437 3307.89866996 -15.33890896 3312.20839167 -20.16943359 3316.40136719 C-22.59084383 3318.51598364 -24.95120451 3320.69364771 -27.3125 3322.875 C-30.93523905 3326.18336914 -34.61692891 3329.36012358 -38.4375 3332.4375 C-42.43224254 3335.65943317 -46.24552109 3339.00657611 -50 3342.5 C-54.6324838 3346.80996438 -59.42122233 3350.85061168 -64.3515625 3354.8203125 C-66.97275119 3356.97757399 -69.49154281 3359.21311 -72 3361.5 C-76.64879893 3365.72684222 -81.46285841 3369.70482292 -86.34667969 3373.65576172 C-88.9153793 3375.74425258 -91.4668444 3377.85351727 -94.02001953 3379.9609375 C-107.55568975 3391.13343033 -121.15259483 3402.21548341 -135 3413 C-135.68288086 3413.53206055 -136.36576172 3414.06412109 -137.06933594 3414.61230469 C-140.83167188 3417.54269938 -144.59641845 3420.4699582 -148.36328125 3423.39453125 C-151.40820029 3425.75953552 -154.4469632 3428.13209479 -157.48046875 3430.51171875 C-167.39024123 3438.27507992 -177.44156673 3445.81725746 -187.60449219 3453.24560547 C-190.80262451 3455.58781693 -193.98996762 3457.94449249 -197.17773438 3460.30078125 C-212.77564792 3471.82356423 -228.51441107 3483.12685925 -244.43115234 3494.20507812 C-246.90542115 3495.93391525 -249.36984003 3497.67589424 -251.83203125 3499.421875 C-265.06126541 3508.76414287 -278.54202022 3517.71143207 -292.0625 3526.625 C-292.98200439 3527.23175568 -293.90150879 3527.83851135 -294.84887695 3528.46365356 C-307.67193171 3536.91925177 -320.57896634 3545.23401427 -333.5561676 3553.45094299 C-336.00948234 3555.00601052 -338.45979726 3556.5657004 -340.90917969 3558.12695312 C-361.63301045 3571.33423048 -382.71526255 3583.965623 -403.99169922 3596.25976562 C-407.08244242 3598.04769109 -410.16841242 3599.84365784 -413.25390625 3601.640625 C-429.36947187 3611.00713639 -445.63583404 3620.07741566 -462 3629 C-463.65515625 3629.90298828 -463.65515625 3629.90298828 -465.34375 3630.82421875 C-480.68885174 3639.179184 -496.15998016 3647.27251609 -511.69671631 3655.26289368 C-515.667833 3657.30742331 -519.62778479 3659.37227091 -523.58203125 3661.44921875 C-536.26782103 3668.10884356 -549.05487312 3674.46590398 -562.01171875 3680.58007812 C-565.10993378 3682.05223651 -568.19672999 3683.54624655 -571.28125 3685.046875 C-620.87341374 3709.16615919 -671.61241274 3731.00869293 -723 3751 C-724.31366547 3751.51213043 -724.31366547 3751.51213043 -725.65386963 3752.03460693 C-763.94557889 3766.95615495 -802.62297234 3780.8012584 -841.68115234 3793.58203125 C-845.25171109 3794.75159123 -848.81645033 3795.93786994 -852.37979126 3797.12921143 C-894.50520094 3811.19644871 -937.32189665 3823.20777842 -980.31665039 3834.30718994 C-982.99089355 3834.99764882 -985.66439426 3835.69093332 -988.33789062 3836.38427734 C-1074.06735097 3858.56128273 -1161.2359486 3874.9183618 -1531.26512671 3904.31510973 C-1533.39689111 3904.31247292 -1535.52865381 3904.31087123 -1537.66041946 3904.30962753 C-1580.84018316 3904.28436295 -1623.90097461 3903.91690861 -1667 3901 C-1668.34516982 3900.91152981 -1669.69036498 3900.82344428 -1671.0355835 3900.73571777 C-1752.19366068 3895.44118969 -1832.88498186 3886.04017195 -1913 3872 C-1914.11638855 3871.80448547 -1915.2327771 3871.60897095 -1916.38299561 3871.40753174 C-1950.43526632 3865.42365242 -1984.27314434 3858.60225743 -2018 3851 C-2019.02746338 3850.76923767 -2020.05492676 3850.53847534 -2021.11352539 3850.30072021 C-2130.03833427 3825.81170499 -2237.38671938 3792.81069524 -2378 3737 C-2378.76922791 3736.68629456 -2379.53845581 3736.37258911 -2380.33099365 3736.04937744 C-2422.15543936 3718.97516393 -2463.2443041 3700.17090764 -2503.87890625 3680.44921875 C-2508.62917017 3678.14406806 -2513.38684208 3675.85551151 -2518.15234375 3673.58203125 C-2529.50968343 3668.15952716 -2540.78507643 3662.65119927 -2551.8828125 3656.71484375 C-2555.8363834 3654.60376798 -2559.81547641 3652.54682594 -2563.8046875 3650.50390625 C-2576.37846573 3644.0639244 -2588.84121749 3637.51502055 -2601.1027832 3630.49072266 C-2606.49524508 3627.40318412 -2611.92130031 3624.42243123 -2617.4375 3621.5625 C-2626.45844917 3616.86700837 -2635.19203424 3611.69201915 -2643.95703125 3606.5390625 C-2649.42177392 3603.32838525 -2654.92349171 3600.18752771 -2660.4375 3597.0625 C-2685.21015734 3582.9735832 -2709.41674156 3567.89242165 -2733.46533203 3552.60742188 C-2736.08614579 3550.94536853 -2738.71291562 3549.29299435 -2741.33984375 3547.640625 C-2769.41341456 3529.90477889 -2796.849088 3511.11333513 -2824 3492 C-2825.50773322 3490.94259528 -2827.01554357 3489.88530053 -2828.5234375 3488.828125 C-2832.69285852 3485.90020031 -2836.84969123 3482.95494107 -2841 3480 C-2841.70366699 3479.49968262 -2842.40733398 3478.99936523 -2843.13232422 3478.48388672 C-2852.92886929 3471.50519464 -2862.55987607 3464.33477864 -2872.10571289 3457.01708984 C-2877.91737335 3452.56726226 -2883.77935483 3448.19570046 -2889.6875 3443.875 C-2902.24225087 3434.67705071 -2914.47286286 3425.07212273 -2926.60302734 3415.32324219 C-2930.10253216 3412.51129044 -2933.61977781 3409.72485952 -2937.15942383 3406.96362305 C-2948.82307397 3397.86275586 -2960.20282289 3388.41432424 -2971.47119141 3378.82983398 C-2974.76198908 3376.03415319 -2978.08583851 3373.28481021 -2981.4375 3370.5625 C-2987.44735831 3365.66751395 -2993.31751283 3360.61682642 -2999.18847656 3355.55712891 C-3000.99362396 3354.00548064 -3002.80438559 3352.46066415 -3004.6171875 3350.91796875 C-3011.02754242 3345.45803949 -3017.34347375 3339.92516202 -3023.55078125 3334.234375 C-3026.32499872 3331.70350994 -3029.14707121 3329.23360609 -3031.98046875 3326.76953125 C-3036.02667681 3323.22420775 -3040.00623703 3319.60412756 -3044 3316 C-3044.804375 3315.278125 -3045.60875 3314.55625 -3046.4375 3313.8125 C-3052.46177012 3308.40610374 -3058.44126459 3302.95224317 -3064.3984375 3297.47216797 C-3066.06606082 3295.93927641 -3067.736121 3294.40906705 -3069.40625 3292.87890625 C-3074.46692776 3288.23417461 -3079.49306291 3283.58058114 -3084.2980957 3278.66894531 C-3085.9568796 3277.04228533 -3087.67470684 3275.54952927 -3089.44921875 3274.05078125 C-3095.81937237 3268.50945532 -3101.65419437 3262.40214014 -3107.58203125 3256.39746094 C-3112.94338949 3250.97291051 -3118.29991447 3245.61984989 -3124.10498047 3240.66357422 C-3127.75094132 3237.46290722 -3131.14263122 3234.00093821 -3134.5625 3230.5625 C-3135.27857422 3229.85029297 -3135.99464844 3229.13808594 -3136.73242188 3228.40429688 C-3140.06341142 3225.06724548 -3143.30268121 3221.70196469 -3146.37109375 3218.12109375 C-3150.80578153 3212.97629898 -3155.66581316 3208.26581079 -3160.5 3203.5 C-3166.03335431 3198.04491095 -3171.47331956 3192.59697397 -3176.52929688 3186.69335938 C-3178.41754497 3184.51924105 -3180.43380292 3182.50451955 -3182.5 3180.5 C-3185.91101116 3177.19081007 -3189.02788768 3173.70038253 -3192.13964844 3170.11425781 C-3195.13688624 3166.70794819 -3198.25720112 3163.42063548 -3201.375 3160.125 C-3206.29774498 3154.89768057 -3211.18241155 3149.64533798 -3215.9609375 3144.28515625 C-3217.37391302 3142.7016492 -3218.79647908 3141.12666767 -3220.2265625 3139.55859375 C-3224.06949558 3135.33929094 -3227.79236929 3131.06822706 -3231.375 3126.625 C-3234.6195076 3122.61175889 -3237.9872668 3118.77564046 -3241.5 3115 C-3245.8099377 3110.367489 -3249.8506094 3105.5787805 -3253.8203125 3100.6484375 C-3255.97757399 3098.02724881 -3258.21311 3095.50845719 -3260.5 3093 C-3264.72684222 3088.35120107 -3268.70482292 3083.53714159 -3272.65576172 3078.65332031 C-3274.74425258 3076.0846207 -3276.85351727 3073.5331556 -3278.9609375 3070.97998047 C-3290.13349964 3057.44422628 -3301.21334551 3043.84582043 -3312 3030 C-3312.82999512 3028.93579834 -3312.82999512 3028.93579834 -3313.67675781 3027.85009766 C-3320.65836405 3018.89660208 -3327.62873389 3009.93437566 -3334.53027344 3000.91894531 C-3335.62633083 2999.48788034 -3336.72351815 2998.05768065 -3337.82128906 2996.62792969 C-3345.61965622 2986.46757541 -3353.33975009 2976.27887722 -3360.71777344 2965.80908203 C-3363.22488595 2962.27181933 -3365.77145398 2958.76292019 -3368.3125 2955.25 C-3368.85914307 2954.49323975 -3369.40578613 2953.73647949 -3369.96899414 2952.95678711 C-3372.75149983 2949.10543426 -3375.5385486 2945.2574612 -3378.33203125 2941.4140625 C-3384.88726164 2932.38523342 -3391.31365077 2923.2840764 -3397.59326172 2914.06152344 C-3399.03692536 2911.94588723 -3400.48823711 2909.83567935 -3401.94140625 2907.7265625 C-3415.26867439 2888.36123456 -3428.33842905 2868.80751705 -3441 2849 C-3441.79519043 2847.75887451 -3441.79519043 2847.75887451 -3442.60644531 2846.49267578 C-3451.19971223 2833.07395898 -3459.67051121 2819.5839985 -3468 2806 C-3468.65371582 2804.93507324 -3469.30743164 2803.87014648 -3469.98095703 2802.77294922 C-3479.59477015 2787.09057132 -3488.97998472 2771.29700097 -3498.10107422 2755.32128906 C-3499.7331718 2752.46669206 -3501.37117398 2749.61566878 -3503.01283264 2746.76657104 C-3511.35116266 2732.2942499 -3519.49754146 2717.73257443 -3527.38476562 2703.00830078 C-3529.04495738 2699.91626893 -3530.71643018 2696.83056385 -3532.390625 2693.74609375 C-3553.88604019 2654.10141937 -3574.73387532 2613.86627863 -3593.29882812 2572.75732422 C-3594.90434394 2569.20360528 -3596.52989326 2565.65923404 -3598.15646362 2562.1151123 C-3614.78053915 2525.87303505 -3630.68781444 2489.28005267 -3645.17047119 2452.12524414 C-3646.08546898 2449.78102936 -3647.00424041 2447.43831272 -3647.92333984 2445.09570312 C-3663.76284355 2404.69360645 -3678.28200996 2363.90224861 -3692.0748291 2322.75866699 C-3692.94750245 2320.15653676 -3693.82270467 2317.55526916 -3694.69824219 2314.95410156 C-3709.95438745 2269.53591978 -3723.07677067 2223.39695673 -3735 2177 C-3735.25676514 2176.00474304 -3735.51353027 2175.00948608 -3735.77807617 2173.98406982 C-3758.70372708 2085.10947741 -3776.47294568 1995.00692191 -3804.6875 1735.8125 C-3804.74843842 1734.68891083 -3804.80937683 1733.56532166 -3804.87216187 1732.40768433 C-3805.28947315 1724.60684206 -3805.66189895 1716.80466751 -3806 1709 C-3806.0494577 1707.87247314 -3806.09891541 1706.74494629 -3806.14987183 1705.58325195 C-3807.207471 1680.52107645 -3807.20134151 1655.45531034 -3807.1875 1630.375 C-3807.18723312 1629.29049686 -3807.18696625 1628.20599373 -3807.18669128 1627.08862686 C-3807.17671397 1594.75763474 -3807.04478803 1562.4814719 -3805.18359375 1530.1942749 C-3804.98670242 1526.76864076 -3804.79793916 1523.342606 -3804.609375 1519.91650391 C-3798.16294373 1404.40578758 -3781.92501493 1289.5454257 -3717 1033 C-3716.70714111 1032.05201538 -3716.41428223 1031.10403076 -3716.11254883 1030.12731934 C-3689.17055492 943.05814083 -3656.55461935 857.94195606 -3592.82269287 719.79066467 C-3590.6800705 715.40729004 -3588.56200571 711.01280782 -3586.4609375 706.609375 C-3581.07724673 695.33177948 -3575.60952138 684.13670233 -3569.71484375 673.1171875 C-3567.60376798 669.1636166 -3565.54682594 665.18452359 -3563.50390625 661.1953125 C-3557.0639244 648.62153427 -3550.51502055 636.15878251 -3543.49072266 623.8972168 C-3540.40318473 618.50475598 -3537.42241152 613.07870905 -3534.5625 607.5625 C-3530.44310725 599.64766861 -3525.95082101 591.96596162 -3521.42724609 584.27661133 C-3517.43126987 577.4785461 -3513.53357121 570.6337402 -3509.6875 563.75 C-3502.46975276 550.88724853 -3494.78738047 538.31544821 -3487.07214355 525.74786377 C-3486.01559051 524.02541645 -3484.96101523 522.30177645 -3483.90722656 520.57763672 C-3474.76177903 505.61690106 -3465.48658187 490.74688729 -3456 476 C-3455.48969238 475.20561523 -3454.97938477 474.41123047 -3454.45361328 473.59277344 C-3431.86176517 438.47583549 -3408.38673383 403.89419697 -3384 370 C-3383.51740723 369.3282373 -3383.03481445 368.65647461 -3382.53759766 367.96435547 C-3370.91351071 351.79027924 -3359.14422536 335.73563017 -3347.03857422 319.91796875 C-3343.05647974 314.71231495 -3339.11242702 309.48105583 -3335.19995117 304.22290039 C-3329.00060082 295.895355 -3322.63897275 287.74611896 -3316.046875 279.7265625 C-3313.14400961 276.19224153 -3310.31280835 272.60617765 -3307.5 269 C-3301.92102411 261.85813402 -3296.20982383 254.82689642 -3290.4765625 247.80859375 C-3289.16952459 246.2076452 -3287.86576644 244.60402024 -3286.5625 243 C-3282.13179936 237.55656779 -3277.62828037 232.18083722 -3273.08325195 226.83300781 C-3270.20408664 223.44008249 -3267.36777419 220.01709624 -3264.5625 216.5625 C-3259.66751395 210.55264169 -3254.61682642 204.68248717 -3249.55712891 198.81152344 C-3248.00548064 197.00637604 -3246.46066415 195.19561441 -3244.91796875 193.3828125 C-3239.45803949 186.97245758 -3233.92516202 180.65652625 -3228.234375 174.44921875 C-3225.70104363 171.67229782 -3223.22904628 168.84713244 -3220.76171875 166.01171875 C-3214.97159532 159.399937 -3209.02720415 152.9258161 -3203.08032227 146.45532227 C-3200.26095768 143.38504256 -3197.46542732 140.29527398 -3194.6875 137.1875 C-3190.795163 132.85333015 -3186.84482506 128.5755716 -3182.875 124.3125 C-3182.30096436 123.69463623 -3181.72692871 123.07677246 -3181.13549805 122.44018555 C-3178.31228076 119.41655095 -3175.4555893 116.44553425 -3172.5078125 113.54296875 C-3170.26872418 111.3237765 -3168.16928396 109.05705861 -3166.13989258 106.64599609 C-3160.49892078 100.16712908 -3154.33043514 94.18678934 -3148.25390625 88.12109375 C-3146.91529513 86.78180764 -3145.57683237 85.44237324 -3144.23851013 84.10279846 C-3141.4437495 81.30657004 -3138.64720514 78.51214141 -3135.84936523 75.71899414 C-3132.28099423 72.15631983 -3128.71713236 68.58917403 -3125.154603 65.02065945 C-3122.39475402 62.25718 -3119.63250678 59.49610758 -3116.8695507 56.73573494 C-3115.55523429 55.42208093 -3114.24164731 54.10769667 -3112.92883492 52.7925396 C-3100.51760593 40.36400683 -3100.51760593 40.36400683 -3094.60386658 35.38978577 C-3092.81380443 33.83865743 -3091.1581081 32.19071897 -3089.5 30.5 C-3086.57997328 27.53414326 -3083.52303459 24.80164482 -3080.37109375 22.0859375 C-3077.34346236 19.42241993 -3074.39315522 16.6803279 -3071.4375 13.9375 C-3070.31282064 12.90069374 -3069.18782908 11.86422602 -3068.0625 10.828125 C-3066.27781412 9.18490812 -3064.50775413 7.53168275 -3062.75 5.859375 C-3058.56731886 2.00121222 -3058.56731886 2.00121222 -3056.171875 1.99609375 C-3052.83765314 3.53727184 -3050.70628415 6.17204424 -3048.3125 8.875 C-3047.78140625 9.46216797 -3047.2503125 10.04933594 -3046.703125 10.65429688 C-3042.76368504 15.04463659 -3039.03489356 19.58694426 -3035.34375 24.1875 C-3032.66791829 27.39849805 -3029.85641724 30.45029137 -3027 33.5 C-3022.56167326 38.23866464 -3018.4085775 43.12119326 -3014.34375 48.1875 C-3011.66791829 51.39849805 -3008.85641724 54.45029137 -3006 57.5 C-3001.56167326 62.23866464 -2997.4085775 67.12119326 -2993.34375 72.1875 C-2990.66791829 75.39849805 -2987.85641724 78.45029137 -2985 81.5 C-2980.56167326 86.23866464 -2976.4085775 91.12119326 -2972.34375 96.1875 C-2969.66791829 99.39849805 -2966.85641724 102.45029137 -2964 105.5 C-2959.56167326 110.23866464 -2955.4085775 115.12119326 -2951.34375 120.1875 C-2948.66791829 123.39849805 -2945.85641724 126.45029137 -2943 129.5 C-2938.56167326 134.23866464 -2934.4085775 139.12119326 -2930.34375 144.1875 C-2927.66791829 147.39849805 -2924.85641724 150.45029137 -2922 153.5 C-2917.56167326 158.23866464 -2913.4085775 163.12119326 -2909.34375 168.1875 C-2906.66791829 171.39849805 -2903.85641724 174.45029137 -2901 177.5 C-2896.56167326 182.23866464 -2892.4085775 187.12119326 -2888.34375 192.1875 C-2885.66791829 195.39849805 -2882.85641724 198.45029137 -2880 201.5 C-2875.56167326 206.23866464 -2871.4085775 211.12119326 -2867.34375 216.1875 C-2864.66791722 219.39849934 -2861.85640293 222.45027636 -2859 225.5 C-2854.54125556 230.26088994 -2850.3620217 235.1646782 -2846.27734375 240.25390625 C-2843.7817361 243.26318958 -2841.16236519 246.13940286 -2838.5 249 C-2835.04838064 252.70861688 -2831.73477852 256.48505895 -2828.5625 260.4375 C-2824.71889943 265.21621628 -2820.63039836 269.69157687 -2816.44165039 274.16381836 C-2812.5400333 278.35329526 -2808.92675203 282.72172936 -2805.34375 287.1875 C-2802.66791829 290.39849805 -2799.85641724 293.45029137 -2797 296.5 C-2792.56167326 301.23866464 -2788.4085775 306.12119326 -2784.34375 311.1875 C-2781.66791829 314.39849805 -2778.85641724 317.45029137 -2776 320.5 C-2771.56167326 325.23866464 -2767.4085775 330.12119326 -2763.34375 335.1875 C-2760.66791829 338.39849805 -2757.85641724 341.45029137 -2755 344.5 C-2750.56167326 349.23866464 -2746.4085775 354.12119326 -2742.34375 359.1875 C-2739.66791829 362.39849805 -2736.85641724 365.45029137 -2734 368.5 C-2729.56167326 373.23866464 -2725.4085775 378.12119326 -2721.34375 383.1875 C-2718.66791829 386.39849805 -2715.85641724 389.45029137 -2713 392.5 C-2708.56167326 397.23866464 -2704.4085775 402.12119326 -2700.34375 407.1875 C-2697.66791829 410.39849805 -2694.85641724 413.45029137 -2692 416.5 C-2687.56167326 421.23866464 -2683.4085775 426.12119326 -2679.34375 431.1875 C-2676.66791829 434.39849805 -2673.85641724 437.45029137 -2671 440.5 C-2667.35113344 444.39578234 -2663.84301761 448.33334037 -2660.5 452.5 C-2657.11103869 456.72079727 -2653.55967536 460.727058 -2649.875 464.6875 C-2649.36493408 465.23784912 -2648.85486816 465.78819824 -2648.3293457 466.35522461 C-2646.11626671 468.73917556 -2643.89379755 471.11095779 -2641.64453125 473.4609375 C-2640.99871094 474.15445312 -2640.35289063 474.84796875 -2639.6875 475.5625 C-2639.13449219 476.14128906 -2638.58148437 476.72007812 -2638.01171875 477.31640625 C-2637 479 -2637 479 -2637.23388672 480.9206543 C-2638.15756014 483.42764171 -2639.1571606 484.31108083 -2641.24609375 485.953125 C-2641.91366699 486.48583008 -2642.58124023 487.01853516 -2643.26904297 487.56738281 C-2643.98463379 488.12264648 -2644.70022461 488.67791016 -2645.4375 489.25 C-2646.16598145 489.8284668 -2646.89446289 490.40693359 -2647.64501953 491.00292969 C-2649.75642689 492.6776394 -2651.87678178 494.34030493 -2654 496 C-2660.05782739 500.77527805 -2665.92969099 505.65088665 -2671.6328125 510.84765625 C-2673.7340413 512.75817947 -2675.85697199 514.63668448 -2678 516.5 C-2693.12940864 529.70439442 -2707.66944054 543.49700194 -2721.84619141 557.71582031 C-2724.02261269 559.89766908 -2726.20442239 562.07402913 -2728.38671875 564.25 C-2729.79980037 565.66374152 -2731.21257223 567.07779274 -2732.625 568.4921875 C-2733.58297485 569.44712601 -2733.58297485 569.44712601 -2734.56030273 570.4213562 C-2738.34851185 574.22908509 -2741.94318251 578.1554986 -2745.45507812 582.2192688 C-2747.23283481 584.26837357 -2749.06802749 586.25314488 -2750.9375 588.21875 C-2751.60523437 588.92386719 -2752.27296875 589.62898438 -2752.9609375 590.35546875 C-2755 592.5 -2755 592.5 -2757.0390625 594.64453125 C-2761.47822568 599.33221901 -2765.78764385 604.10766183 -2770 609 C-2770.48774902 609.56557617 -2770.97549805 610.13115234 -2771.47802734 610.71386719 C-2772.88406073 612.34847238 -2774.28646558 613.9861088 -2775.6875 615.625 C-2776.72779139 616.84120844 -2777.76815823 618.05735236 -2778.80859375 619.2734375 C-2779.33437012 619.88799805 -2779.86014648 620.50255859 -2780.40185547 621.13574219 C-2781.98430606 622.9816928 -2783.57146204 624.8234841 -2785.16015625 626.6640625 C-2790.15216808 632.45303914 -2795.08762298 638.26397571 -2799.82421875 644.265625 C-2801.51883718 646.39530704 -2803.22955672 648.50655202 -2804.95703125 650.609375 C-2811.42728318 658.49176185 -2817.69273274 666.48282562 -2823.76953125 674.671875 C-2826.78158378 678.72572557 -2829.85321268 682.73215786 -2832.92895508 686.73779297 C-2840.01637204 695.97658311 -2846.88950966 705.32321786 -2853.52685547 714.88964844 C-2854.99429324 716.99182479 -2856.48057731 719.07931953 -2857.97265625 721.1640625 C-2875.26091688 745.42179566 -2891.62982993 770.48540994 -2907 796 C-2908.01688068 797.67711147 -2909.0338089 799.35419411 -2910.05078125 801.03125 C-2916.84601674 812.26981388 -2923.49436503 823.59144279 -2930 835 C-2930.51755859 835.9075 -2931.03511719 836.815 -2931.56835938 837.75 C-2954.72973157 878.48302254 -2976.17351798 920.20098499 -2995.13653564 963.05493164 C-2995.98810135 964.97319671 -2996.846015 966.88847475 -2997.70654297 968.80273438 C-3038.84977931 1060.33659129 -3070.36676519 1156.50206809 -3101 1290 C-3101.31133881 1291.45451569 -3101.31133881 1291.45451569 -3101.62896729 1292.93841553 C-3120.80330411 1382.82230416 -3132.78739989 1474.82022419 -3136.89285278 1566.6446228 C-3136.96785674 1568.29340671 -3137.04668756 1569.94201894 -3137.12838745 1571.59048462 C-3138.17370824 1592.98102198 -3138.18753848 1614.37019159 -3138.18530273 1635.78100586 C-3138.18522208 1639.85494485 -3138.19208314 1643.92876991 -3138.20581055 1648.00268555 C-3138.33008469 1685.54142013 -3137.13470026 1722.94585732 -3134.1875 1760.375 C-3134.10318726 1761.46411682 -3134.01887451 1762.55323364 -3133.93200684 1763.675354 C-3129.52977895 1820.2077872 -3121.88286341 1876.34777842 -3111 1932 C-3110.83453674 1932.85287598 -3110.66907349 1933.70575195 -3110.49859619 1934.58447266 C-3101.63979589 1980.21383588 -3090.28702279 2025.34880437 -3076.67523193 2069.78930664 C-3076.01889373 2071.93814239 -3075.36882618 2074.08876119 -3074.72119141 2076.24023438 C-3060.68885664 2122.81887448 -3043.81129624 2168.75840343 -3023.84442139 2213.1229248 C-3022.95407031 2215.10209771 -3022.06695341 2217.08270018 -3021.18017578 2219.06347656 C-3010.53578443 2242.81532011 -2999.72422206 2266.49857052 -2987.38085938 2289.42529297 C-2985.8507435 2292.27829898 -2984.33932628 2295.14083883 -2982.828125 2298.00390625 C-2965.81038639 2330.1056051 -2946.91175202 2361.28044175 -2926 2391 C-2925.3498291 2391.92441895 -2924.6996582 2392.84883789 -2924.02978516 2393.80126953 C-2922.1176157 2396.50321734 -2920.18826921 2399.19172994 -2918.25 2401.875 C-2917.66532959 2402.69653564 -2917.08065918 2403.51807129 -2916.47827148 2404.36450195 C-2915.93372314 2405.10788818 -2915.3891748 2405.85127441 -2914.828125 2406.6171875 C-2914.3527832 2407.27315918 -2913.87744141 2407.92913086 -2913.38769531 2408.60498047 C-2912.92975586 2409.06533691 -2912.47181641 2409.52569336 -2912 2410 C-2908.98213546 2410.31841726 -2908.98213546 2410.31841726 -2907.1340332 2408.45874023 C-2906.44656006 2407.74919189 -2905.75908691 2407.03964355 -2905.05078125 2406.30859375 C-2904.28443359 2405.52806641 -2903.51808594 2404.74753906 -2902.72851562 2403.94335938 C-2901.93123047 2403.11642578 -2901.13394531 2402.28949219 -2900.3125 2401.4375 C-2895.33285713 2396.3175855 -2890.3467498 2391.34433995 -2884.92260742 2386.69555664 C-2881.62525354 2383.78760455 -2878.57667975 2380.6376995 -2875.5 2377.5 C-2871.20047464 2373.15419795 -2866.8966892 2368.93931722 -2862.21875 2365 C-2858.84987939 2361.96327156 -2855.69090341 2358.72188306 -2852.5 2355.5 C-2848.19812143 2351.15635562 -2843.89692101 2346.93951243 -2839.21875 2343 C-2835.84987939 2339.96327156 -2832.69090341 2336.72188306 -2829.5 2333.5 C-2825.19812143 2329.15635562 -2820.89692101 2324.93951243 -2816.21875 2321 C-2812.19090944 2317.36927048 -2808.42461585 2313.46278673 -2804.62890625 2309.59179688 C-2801.52474224 2306.44497522 -2798.38118135 2303.41664009 -2795.03125 2300.53125 C-2790.8076119 2296.88933509 -2786.90341837 2292.97965701 -2783 2289 C-2778.47021287 2284.38174047 -2773.87040516 2279.9680272 -2768.96875 2275.74609375 C-2765.66244449 2272.81371565 -2762.59281885 2269.65415868 -2759.5 2266.5 C-2755.20047464 2262.15419795 -2750.8966892 2257.93931722 -2746.21875 2254 C-2742.84987939 2250.96327156 -2739.69090341 2247.72188306 -2736.5 2244.5 C-2732.19812143 2240.15635562 -2727.89692101 2235.93951243 -2723.21875 2232 C-2719.84987939 2228.96327156 -2716.69090341 2225.72188306 -2713.5 2222.5 C-2709.19812143 2218.15635562 -2704.89692101 2213.93951243 -2700.21875 2210 C-2696.84987939 2206.96327156 -2693.69090341 2203.72188306 -2690.5 2200.5 C-2686.19812143 2196.15635562 -2681.89692101 2191.93951243 -2677.21875 2188 C-2673.84987939 2184.96327156 -2670.69090341 2181.72188306 -2667.5 2178.5 C-2663.19812143 2174.15635562 -2658.89692101 2169.93951243 -2654.21875 2166 C-2650.84987939 2162.96327156 -2647.69090341 2159.72188306 -2644.5 2156.5 C-2640.19812143 2152.15635562 -2635.89692101 2147.93951243 -2631.21875 2144 C-2627.84987939 2140.96327156 -2624.69090341 2137.72188306 -2621.5 2134.5 C-2617.19812143 2130.15635562 -2612.89692101 2125.93951243 -2608.21875 2122 C-2604.84987939 2118.96327156 -2601.69090341 2115.72188306 -2598.5 2112.5 C-2594.19812143 2108.15635562 -2589.89692101 2103.93951243 -2585.21875 2100 C-2581.84987939 2096.96327156 -2578.69090341 2093.72188306 -2575.5 2090.5 C-2571.19812143 2086.15635562 -2566.89692101 2081.93951243 -2562.21875 2078 C-2558.84987939 2074.96327156 -2555.69090341 2071.72188306 -2552.5 2068.5 C-2548.19812143 2064.15635562 -2543.89692101 2059.93951243 -2539.21875 2056 C-2535.84987939 2052.96327156 -2532.69090341 2049.72188306 -2529.5 2046.5 C-2525.19812143 2042.15635562 -2520.89692101 2037.93951243 -2516.21875 2034 C-2512.19090944 2030.36927048 -2508.42461585 2026.46278673 -2504.62890625 2022.59179688 C-2501.52474224 2019.44497522 -2498.38118135 2016.41664009 -2495.03125 2013.53125 C-2490.8076119 2009.88933509 -2486.90341837 2005.97965701 -2483 2002 C-2478.47021287 1997.38174047 -2473.87040516 1992.9680272 -2468.96875 1988.74609375 C-2465.66244449 1985.81371565 -2462.59281885 1982.65415868 -2459.5 1979.5 C-2455.20047464 1975.15419795 -2450.8966892 1970.93931722 -2446.21875 1967 C-2442.84987939 1963.96327156 -2439.69090341 1960.72188306 -2436.5 1957.5 C-2432.19812143 1953.15635562 -2427.89692101 1948.93951243 -2423.21875 1945 C-2419.84987939 1941.96327156 -2416.69090341 1938.72188306 -2413.5 1935.5 C-2409.19812143 1931.15635562 -2404.89692101 1926.93951243 -2400.21875 1923 C-2396.84987939 1919.96327156 -2393.69090341 1916.72188306 -2390.5 1913.5 C-2386.19812143 1909.15635562 -2381.89692101 1904.93951243 -2377.21875 1901 C-2373.84987939 1897.96327156 -2370.69090341 1894.72188306 -2367.5 1891.5 C-2363.19812143 1887.15635562 -2358.89692101 1882.93951243 -2354.21875 1879 C-2350.84987939 1875.96327156 -2347.69090341 1872.72188306 -2344.5 1869.5 C-2340.19812143 1865.15635562 -2335.89692101 1860.93951243 -2331.21875 1857 C-2327.84987939 1853.96327156 -2324.69090341 1850.72188306 -2321.5 1847.5 C-2317.19812143 1843.15635562 -2312.89692101 1838.93951243 -2308.21875 1835 C-2304.84987939 1831.96327156 -2301.69090341 1828.72188306 -2298.5 1825.5 C-2294.19812143 1821.15635562 -2289.89692101 1816.93951243 -2285.21875 1813 C-2281.84987939 1809.96327156 -2278.69090341 1806.72188306 -2275.5 1803.5 C-2271.19812143 1799.15635562 -2266.89692101 1794.93951243 -2262.21875 1791 C-2258.84987939 1787.96327156 -2255.69090341 1784.72188306 -2252.5 1781.5 C-2248.19812143 1777.15635562 -2243.89692101 1772.93951243 -2239.21875 1769 C-2235.84987939 1765.96327156 -2232.69090341 1762.72188306 -2229.5 1759.5 C-2225.19812143 1755.15635562 -2220.89692101 1750.93951243 -2216.21875 1747 C-2212.19090944 1743.36927048 -2208.42461585 1739.46278673 -2204.62890625 1735.59179688 C-2201.52474224 1732.44497522 -2198.38118135 1729.41664009 -2195.03125 1726.53125 C-2190.8076119 1722.88933509 -2186.90341837 1718.97965701 -2183 1715 C-2178.47021287 1710.38174047 -2173.87040516 1705.9680272 -2168.96875 1701.74609375 C-2165.66244449 1698.81371565 -2162.59281885 1695.65415868 -2159.5 1692.5 C-2155.20047464 1688.15419795 -2150.8966892 1683.93931722 -2146.21875 1680 C-2142.84987939 1676.96327156 -2139.69090341 1673.72188306 -2136.5 1670.5 C-2132.19812143 1666.15635562 -2127.89692101 1661.93951243 -2123.21875 1658 C-2119.84987939 1654.96327156 -2116.69090341 1651.72188306 -2113.5 1648.5 C-2109.19812143 1644.15635562 -2104.89692101 1639.93951243 -2100.21875 1636 C-2096.84987939 1632.96327156 -2093.69090341 1629.72188306 -2090.5 1626.5 C-2086.19812143 1622.15635562 -2081.89692101 1617.93951243 -2077.21875 1614 C-2073.84987939 1610.96327156 -2070.69090341 1607.72188306 -2067.5 1604.5 C-2059.64939024 1596.57317073 -2059.64939024 1596.57317073 -2056 1593.5 C-2053.31030686 1591.19085122 -2050.75257651 1588.80716023 -2048.2578125 1586.2890625 C-2047.24074219 1585.2671582 -2047.24074219 1585.2671582 -2046.203125 1584.22460938 C-2044.83323664 1582.84055864 -2043.46598184 1581.4538956 -2042.1015625 1580.06445312 C-2041.4725 1579.42701172 -2040.8434375 1578.78957031 -2040.1953125 1578.1328125 C-2039.62828613 1577.55418457 -2039.06125977 1576.97555664 -2038.47705078 1576.37939453 C-2037 1575 -2037 1575 -2035 1574 C-2033.9113032 1572.04101601 -2033.9113032 1572.04101601 -2032.8828125 1569.578125 C-2032.45145996 1568.59626221 -2032.02010742 1567.61439941 -2031.57568359 1566.6027832 C-2031.09695801 1565.49636475 -2030.61823242 1564.38994629 -2030.125 1563.25 C-2029.32626135 1561.42896068 -2028.52748357 1559.60793834 -2027.72781372 1557.78730774 C-2026.82139848 1555.72206528 -2025.91758139 1553.65569572 -2025.01367188 1551.58935547 C-2021.59112926 1543.7772425 -2018.12050959 1535.98634031 -2014.65557861 1528.19296265 C-2013.36273363 1525.2849087 -2012.0707605 1522.37646838 -2010.77880859 1519.46801758 C-2004.7699892 1505.94708608 -1998.71448718 1492.44769745 -1992.63265991 1478.95947266 C-1986.60342953 1465.58669226 -1980.62679741 1452.1913282 -1974.67773438 1438.78271484 C-1970.7216214 1429.86700912 -1966.74703986 1420.95995916 -1962.75 1412.0625 C-1957.66997603 1400.75307459 -1952.63188061 1389.42537894 -1947.60229492 1378.09344482 C-1940.32382584 1361.69484594 -1933.00723344 1345.3144042 -1925.63238525 1328.95892334 C-1919.60325255 1315.58632355 -1913.62671435 1302.19114097 -1907.67773438 1288.78271484 C-1903.7216214 1279.86700912 -1899.74703986 1270.95995916 -1895.75 1262.0625 C-1890.66997603 1250.75307459 -1885.63188061 1239.42537894 -1880.60229492 1228.09344482 C-1873.32218067 1211.69113934 -1866.00408519 1195.30692464 -1858.62734985 1178.94784546 C-1853.05065067 1166.57927604 -1847.51907243 1154.19154064 -1842.01940918 1141.7885437 C-1836.72032408 1129.84055369 -1831.37134011 1117.91566739 -1826 1106 C-1820.34413219 1093.4511091 -1814.71039983 1080.89292642 -1809.125 1068.3125 C-1808.80432556 1067.59026245 -1808.48365112 1066.8680249 -1808.15325928 1066.12390137 C-1806.13244586 1061.57174263 -1804.11294106 1057.01900403 -1802.09375 1052.46612549 C-1798.43942555 1044.2265619 -1794.78343879 1035.98773767 -1791.125 1027.75 C-1790.70369812 1026.80131042 -1790.28239624 1025.85262085 -1789.84832764 1024.87518311 C-1783.48322055 1010.5463121 -1777.071428 996.23906103 -1770.62652588 981.94592285 C-1765.05145245 969.58101189 -1759.52143415 957.19696437 -1754.0234375 944.79760742 C-1748.63987936 932.6590297 -1743.20582297 920.54375697 -1737.75 908.4375 C-1731.09443259 893.6670552 -1724.48177958 878.87882673 -1717.91674805 864.06787109 C-1714.40569909 856.1481415 -1710.89122854 848.22993115 -1707.375 840.3125 C-1706.94660828 839.34785828 -1706.51821655 838.38321655 -1706.07684326 837.38934326 C-1699.63755199 822.89361743 -1693.15250319 808.41912563 -1686.63265991 793.95947266 C-1680.60342953 780.58669226 -1674.62679741 767.1913282 -1668.67773438 753.78271484 C-1664.21691057 743.72956606 -1659.7272342 733.68976822 -1655.22021484 723.65722656 C-1651.82962509 716.10164671 -1648.45821308 708.53773815 -1645.09765625 700.96875 C-1644.44659409 699.50253456 -1644.44659409 699.50253456 -1643.78237915 698.00669861 C-1641.62978794 693.15820496 -1639.47853558 688.3091226 -1637.32910156 683.45922852 C-1631.6276472 670.60508321 -1625.84057942 657.79151782 -1620 645 C-1619.67 645 -1619.34 645 -1619 645 C-1618.06801733 675.75205743 -1617.79416291 706.49301256 -1617.68639686 737.25789213 C-1617.66928513 742.11516923 -1617.65017508 746.97243548 -1617.62990815 751.8297004 C-1617.6269332 752.54273376 -1617.62395825 753.25576711 -1617.62089316 753.99040754 C-1617.61480449 755.44768244 -1617.60871179 756.90495732 -1617.60261516 758.36223219 C-1617.5411004 773.12267451 -1617.48581429 787.88313635 -1617.43256933 802.64361053 C-1617.39353424 813.45657035 -1617.3530017 824.26952348 -1617.31132329 835.08247343 C-1616.99011686 918.44481969 -1616.73734803 1001.80727101 -1616.551651 1085.17002869 C-1616.54839422 1086.62995256 -1616.54839422 1086.62995256 -1616.54507165 1088.11936985 C-1616.44636825 1132.4027984 -1616.35640236 1176.68623993 -1616.2766359 1220.96970659 C-1616.24307238 1239.58287939 -1616.2082484 1258.19604982 -1616.17269343 1276.80921892 C-1616.16674652 1279.92633927 -1616.16083545 1283.04345968 -1616.15492561 1286.1605801 C-1616.06355181 1334.18460075 -1615.94451962 1382.20835325 -1615.7444458 1430.23205566 C-1615.74013991 1431.26563194 -1615.73583402 1432.29920821 -1615.73139765 1433.36410497 C-1615.66178637 1450.0314736 -1615.58978492 1466.6988319 -1615.51747746 1483.36618902 C-1615.30911292 1531.4043295 -1615.11747186 1579.44226701 -1615.03787327 1627.48081875 C-1615.03540426 1628.96362119 -1615.03540426 1628.96362119 -1615.03288538 1630.47637923 C-1614.99705477 1652.17976563 -1614.96994991 1673.88315396 -1614.9510869 1695.58656147 C-1614.94334778 1704.31903002 -1614.93437558 1713.05149724 -1614.9249897 1721.78396416 C-1614.92349476 1723.21739046 -1614.92349476 1723.21739046 -1614.92196961 1724.67977486 C-1614.88932017 1755.40583746 -1614.75575327 1786.13043107 -1614.56870567 1816.85591093 C-1614.38078355 1847.80367978 -1614.29345315 1878.74999499 -1614.3442136 1909.69834312 C-1614.35121728 1913.98282117 -1614.3570824 1918.26730008 -1614.36226082 1922.5517807 C-1614.36384557 1923.81145884 -1614.36384557 1923.81145884 -1614.36546234 1925.09658503 C-1614.37918615 1938.34525272 -1614.28573478 1951.59086425 -1614.1465242 1964.83871579 C-1614.01156706 1977.89480833 -1613.99249882 1990.94694561 -1614.0930578 2004.00338921 C-1614.14366834 2010.97747854 -1614.14543434 2017.9422551 -1613.99805938 2024.91522599 C-1613.10220413 2070.9721277 -1613.10220413 2070.9721277 -1629.32618636 2087.89429098 C-1635.26387459 2093.67283268 -1641.6236679 2098.81972502 -1648.29372148 2103.72180011 C-1654.19485903 2108.14243443 -1659.46060961 2113.31963038 -1664.625 2118.5625 C-1665.21619629 2119.15748291 -1665.80739258 2119.75246582 -1666.41650391 2120.36547852 C-1668.280165 2122.24119657 -1670.14050842 2124.12014903 -1672 2126 C-1685.69811123 2139.84809055 -1685.69811123 2139.84809055 -1689.96875 2143.46875 C-1696.53635278 2149.04422556 -1702.44529701 2155.38148332 -1708.5 2161.5 C-1722.75864042 2175.90891969 -1722.75864042 2175.90891969 -1728.85351562 2181.07617188 C-1734.47895037 2186.11807653 -1739.68928961 2191.63114315 -1745 2197 C-1758.69737347 2210.84734471 -1758.69737347 2210.84734471 -1764.8359375 2216.05859375 C-1770.46540506 2221.10885617 -1775.68322842 2226.62501559 -1781 2232 C-1794.69737347 2245.84734471 -1794.69737347 2245.84734471 -1800.8359375 2251.05859375 C-1806.46540506 2256.10885617 -1811.68322842 2261.62501559 -1817 2267 C-1830.69737347 2280.84734471 -1830.69737347 2280.84734471 -1836.8359375 2286.05859375 C-1842.46540506 2291.10885617 -1847.68322842 2296.62501559 -1853 2302 C-1866.69737347 2315.84734471 -1866.69737347 2315.84734471 -1872.8359375 2321.05859375 C-1878.46540506 2326.10885617 -1883.68322842 2331.62501559 -1889 2337 C-1902.69737347 2350.84734471 -1902.69737347 2350.84734471 -1908.8359375 2356.05859375 C-1914.46540506 2361.10885617 -1919.68322842 2366.62501559 -1925 2372 C-1938.69737347 2385.84734471 -1938.69737347 2385.84734471 -1944.8359375 2391.05859375 C-1950.46540506 2396.10885617 -1955.68322842 2401.62501559 -1961 2407 C-1974.69737347 2420.84734471 -1974.69737347 2420.84734471 -1980.8359375 2426.05859375 C-1986.46540506 2431.10885617 -1991.68322842 2436.62501559 -1997 2442 C-2010.69737347 2455.84734471 -2010.69737347 2455.84734471 -2016.8359375 2461.05859375 C-2022.46540506 2466.10885617 -2027.68322842 2471.62501559 -2033 2477 C-2046.69737347 2490.84734471 -2046.69737347 2490.84734471 -2052.8359375 2496.05859375 C-2058.46540506 2501.10885617 -2063.68322842 2506.62501559 -2069 2512 C-2082.69737347 2525.84734471 -2082.69737347 2525.84734471 -2088.8359375 2531.05859375 C-2094.46540506 2536.10885617 -2099.68322842 2541.62501559 -2105 2547 C-2118.69737347 2560.84734471 -2118.69737347 2560.84734471 -2124.8359375 2566.05859375 C-2130.46540506 2571.10885617 -2135.68322842 2576.62501559 -2141 2582 C-2154.69737347 2595.84734471 -2154.69737347 2595.84734471 -2160.8359375 2601.05859375 C-2166.46540506 2606.10885617 -2171.68322842 2611.62501559 -2177 2617 C-2190.69737347 2630.84734471 -2190.69737347 2630.84734471 -2196.8359375 2636.05859375 C-2202.46540506 2641.10885617 -2207.68322842 2646.62501559 -2213 2652 C-2226.69737347 2665.84734471 -2226.69737347 2665.84734471 -2232.8359375 2671.05859375 C-2238.46540506 2676.10885617 -2243.68322842 2681.62501559 -2249 2687 C-2262.69737347 2700.84734471 -2262.69737347 2700.84734471 -2268.8359375 2706.05859375 C-2274.46540506 2711.10885617 -2279.68322842 2716.62501559 -2285 2722 C-2298.69737347 2735.84734471 -2298.69737347 2735.84734471 -2304.8359375 2741.05859375 C-2310.46540506 2746.10885617 -2315.68322842 2751.62501559 -2321 2757 C-2334.69737347 2770.84734471 -2334.69737347 2770.84734471 -2340.8359375 2776.05859375 C-2346.46540506 2781.10885617 -2351.68322842 2786.62501559 -2357 2792 C-2370.69737347 2805.84734471 -2370.69737347 2805.84734471 -2376.8359375 2811.05859375 C-2382.46540506 2816.10885617 -2387.68322842 2821.62501559 -2393 2827 C-2406.69737347 2840.84734471 -2406.69737347 2840.84734471 -2412.8359375 2846.05859375 C-2418.46540506 2851.10885617 -2423.68322842 2856.62501559 -2429 2862 C-2442.69897221 2875.84896096 -2442.69897221 2875.84896096 -2448.80957031 2881.03662109 C-2454.57087703 2886.20073485 -2459.92430644 2891.82504304 -2465.375 2897.3125 C-2466.67033827 2898.61286399 -2467.96590937 2899.91299609 -2469.26171875 2901.21289062 C-2471.61911353 2903.57840855 -2473.97524784 2905.94516439 -2476.32958984 2908.3137207 C-2477.88441365 2909.87778418 -2479.44054951 2911.44054951 -2481 2913 C-2471.52409653 2921.33607307 -2461.58516134 2928.88893192 -2451.36279297 2936.28417969 C-2449.21235268 2937.84579307 -2447.07472748 2939.42293939 -2444.94140625 2941.0078125 C-2392.74954555 2979.55739406 -2335.94608102 3012.3559418 -2278.41796875 3042.1796875 C-2275.07556932 3043.91391264 -2271.74356797 3045.66446845 -2268.42578125 3047.4453125 C-2243.91876284 3060.58239702 -2218.65884509 3072.11364147 -2193.20433044 3083.27243042 C-2188.98305319 3085.12363108 -2184.7718515 3086.9948906 -2180.5703125 3088.890625 C-2161.30576493 3097.55431259 -2141.6734434 3105.32130942 -2122 3113 C-2121.1966925 3113.31366516 -2120.39338501 3113.62733032 -2119.56573486 3113.95050049 C-2016.42514977 3154.14013788 -1908.92967585 3183.27973995 -1552.625 3223.625 C-1551.90871429 3223.63590164 -1551.19242859 3223.64680328 -1550.45443726 3223.65803528 C-1487.85242935 3224.59833043 -1425.31662627 3222.16164088 -1363 3216 C-1362.07864258 3215.90889954 -1361.15728516 3215.81779907 -1360.20800781 3215.72393799 C-1279.82106814 3207.71021546 -1200.34430833 3193.6605426 -1122 3174 C-1121.07850159 3173.76968079 -1120.15700317 3173.53936157 -1119.20758057 3173.30206299 C-1079.39146002 3163.34379016 -1040.05487933 3151.74169232 -1001.22705078 3138.44140625 C-997.73718715 3137.24767212 -994.24033139 3136.07628923 -990.74021912 3134.91299438 C-942.08780464 3118.73546477 -894.60360839 3099.3361101 -848 3078 C-846.87045898 3077.48405273 -845.74091797 3076.96810547 -844.57714844 3076.43652344 C-819.64059475 3065.02295415 -794.68945902 3053.41123294 -770.55371094 3040.37255859 C-767.53574033 3038.75047152 -764.50631238 3037.15075665 -761.4765625 3035.55078125 C-748.03453847 3028.43745407 -734.77613621 3021.076762 -721.6796875 3013.33984375 C-717.09097252 3010.62932595 -712.46846617 3007.98557997 -707.82739258 3005.3659668 C-697.7978738 2999.70146377 -688.02577416 2993.7135505 -678.33398438 2987.49121094 C-676.00676696 2986.0043235 -673.66967266 2984.53451335 -671.328125 2983.0703125 C-652.49283534 2971.28674525 -634.11426655 2958.86183006 -616 2946 C-615.23059082 2945.4548877 -614.46118164 2944.90977539 -613.66845703 2944.34814453 C-599.70775305 2934.4366104 -585.93032442 2924.23565542 -573 2913 C-573.68989014 2912.31083496 -574.37978027 2911.62166992 -575.09057617 2910.91162109 C-577.65933675 2908.34291686 -580.22152676 2905.76773472 -582.78279114 2903.19155884 C-585.29594216 2900.66489496 -587.81186425 2898.1409975 -590.32788086 2895.6171875 C-591.64649492 2894.2935449 -592.96421003 2892.96900613 -594.28100586 2891.64355469 C-603.33622689 2882.49906901 -603.33622689 2882.49906901 -612.89135742 2873.88818359 C-618.96434501 2868.45012802 -624.57076815 2862.4739912 -630.30029297 2856.67919922 C-638.85110941 2848.03304035 -638.85110941 2848.03304035 -647.88085938 2839.89648438 C-653.75846816 2834.6364308 -659.18513056 2828.86015619 -664.72753906 2823.25195312 C-672.13891286 2815.6699862 -672.13891286 2815.6699862 -679.96875 2808.53125 C-686.81941656 2802.70028433 -692.98028405 2796.07120173 -699.30029297 2789.67919922 C-706.93511285 2781.86183665 -706.93511285 2781.86183665 -715 2774.5 C-721.84276081 2768.68329203 -727.99107813 2762.0602847 -734.30029297 2755.67919922 C-742.85110941 2747.03304035 -742.85110941 2747.03304035 -751.88085938 2738.89648438 C-757.75846816 2733.6364308 -763.18513056 2727.86015619 -768.72753906 2722.25195312 C-776.13891286 2714.6699862 -776.13891286 2714.6699862 -783.96875 2707.53125 C-790.81941656 2701.70028433 -796.98028405 2695.07120173 -803.30029297 2688.67919922 C-811.85110941 2680.03304035 -811.85110941 2680.03304035 -820.88085938 2671.89648438 C-826.75846816 2666.6364308 -832.18513056 2660.86015619 -837.72753906 2655.25195312 C-845.13891286 2647.6699862 -845.13891286 2647.6699862 -852.96875 2640.53125 C-859.81941656 2634.70028433 -865.98028405 2628.07120173 -872.30029297 2621.67919922 C-879.93511285 2613.86183665 -879.93511285 2613.86183665 -888 2606.5 C-894.84276081 2600.68329203 -900.99107813 2594.0602847 -907.30029297 2587.67919922 C-915.85110941 2579.03304035 -915.85110941 2579.03304035 -924.88085938 2570.89648438 C-930.75846816 2565.6364308 -936.18513056 2559.86015619 -941.72753906 2554.25195312 C-949.13891286 2546.6699862 -949.13891286 2546.6699862 -956.96875 2539.53125 C-963.81941656 2533.70028433 -969.98028405 2527.07120173 -976.30029297 2520.67919922 C-984.85110941 2512.03304035 -984.85110941 2512.03304035 -993.88085938 2503.89648438 C-999.75846816 2498.6364308 -1005.18513056 2492.86015619 -1010.72753906 2487.25195312 C-1018.13891286 2479.6699862 -1018.13891286 2479.6699862 -1025.96875 2472.53125 C-1032.81941656 2466.70028433 -1038.98028405 2460.07120173 -1045.30029297 2453.67919922 C-1052.93511285 2445.86183665 -1052.93511285 2445.86183665 -1061 2438.5 C-1067.84276081 2432.68329203 -1073.99107813 2426.0602847 -1080.30029297 2419.67919922 C-1088.85110941 2411.03304035 -1088.85110941 2411.03304035 -1097.88085938 2402.89648438 C-1103.75846816 2397.6364308 -1109.18513056 2391.86015619 -1114.72753906 2386.25195312 C-1122.13891286 2378.6699862 -1122.13891286 2378.6699862 -1129.96875 2371.53125 C-1136.81941656 2365.70028433 -1142.98028405 2359.07120173 -1149.30029297 2352.67919922 C-1157.85110941 2344.03304035 -1157.85110941 2344.03304035 -1166.88085938 2335.89648438 C-1172.75846816 2330.6364308 -1178.18513056 2324.86015619 -1183.72753906 2319.25195312 C-1191.13891286 2311.6699862 -1191.13891286 2311.6699862 -1198.96875 2304.53125 C-1205.81941656 2298.70028433 -1211.98028405 2292.07120173 -1218.30029297 2285.67919922 C-1225.93511285 2277.86183665 -1225.93511285 2277.86183665 -1234 2270.5 C-1240.84276081 2264.68329203 -1246.99107813 2258.0602847 -1253.30029297 2251.67919922 C-1261.85110941 2243.03304035 -1261.85110941 2243.03304035 -1270.88085938 2234.89648438 C-1276.75846816 2229.6364308 -1282.18513056 2223.86015619 -1287.72753906 2218.25195312 C-1295.13891286 2210.6699862 -1295.13891286 2210.6699862 -1302.96875 2203.53125 C-1309.81941656 2197.70028433 -1315.98028405 2191.07120173 -1322.30029297 2184.67919922 C-1330.85110941 2176.03304035 -1330.85110941 2176.03304035 -1339.88085938 2167.89648438 C-1345.75846816 2162.6364308 -1351.18513056 2156.86015619 -1356.72753906 2151.25195312 C-1364.13891286 2143.6699862 -1364.13891286 2143.6699862 -1371.96875 2136.53125 C-1378.81941656 2130.70028433 -1384.98028405 2124.07120173 -1391.30029297 2117.67919922 C-1393.06263896 2115.89858061 -1394.82812932 2114.12112065 -1396.59375 2112.34375 C-1397.38005798 2111.54499451 -1397.38005798 2111.54499451 -1398.18225098 2110.73010254 C-1404.09670059 2104.77765364 -1410.1464433 2099.55298763 -1417.16239262 2094.92186642 C-1426.64769161 2088.18596094 -1434.97525867 2080.13348906 -1437.4070251 2068.37388158 C-1439.73098448 2052.98061598 -1439.0121221 2037.18320742 -1438.63390482 2021.66350444 C-1438.45366733 2014.02227403 -1438.42788172 2006.38209628 -1438.40477985 1998.7390479 C-1438.35713729 1984.24894087 -1438.19294365 1969.76224253 -1437.96853828 1955.27389336 C-1437.64953324 1934.57769521 -1437.48439073 1913.8820658 -1437.35552677 1893.18390623 C-1437.29263204 1883.08450624 -1437.22380381 1872.98514662 -1437.15394115 1862.88579273 C-1437.14334697 1861.34497166 -1437.14334697 1861.34497166 -1437.13253876 1859.77302289 C-1437.0204511 1843.58611501 -1436.87909655 1827.39960285 -1436.723279 1811.21306133 C-1436.06038805 1741.9663289 -1435.77351855 1672.72183384 -1435.64866797 1603.47242722 C-1435.63594664 1596.42292427 -1435.62264881 1589.37342244 -1435.60933126 1582.3239206 C-1435.5864005 1570.1719086 -1435.56384135 1558.01989592 -1435.5416137 1545.86788261 C-1435.54030807 1545.15422236 -1435.53900244 1544.44056212 -1435.53765725 1543.7052758 C-1435.52176131 1535.00455818 -1435.50623252 1526.30384 -1435.49109413 1517.60312103 C-1435.41539196 1474.10404017 -1435.31436512 1430.60508071 -1435.19076538 1387.10610962 C-1435.18867317 1386.36916148 -1435.18658096 1385.63221334 -1435.18442536 1384.87293344 C-1435.13130884 1366.17186899 -1435.07694086 1347.47080826 -1435.02204571 1328.76974896 C-1434.97345614 1312.21296808 -1434.92568377 1295.65618485 -1434.87795448 1279.09940147 C-1434.87359973 1277.58908131 -1434.86924484 1276.07876114 -1434.86488983 1274.56844098 C-1434.83871606 1265.4913861 -1434.83871606 1265.4913861 -1434.81255111 1256.41433119 C-1434.79069572 1248.83206124 -1434.76880252 1241.2497914 -1434.7468292 1233.66752179 C-1434.6121968 1187.20975686 -1434.4829187 1140.75197927 -1434.35717773 1094.29418945 C-1434.32334364 1081.79478923 -1434.28949936 1069.29538904 -1434.25558567 1056.79598904 C-1434.25245092 1055.64050636 -1434.25245092 1055.64050636 -1434.24925284 1054.4616806 C-1434.18490859 1030.74948768 -1434.11936665 1007.03729832 -1434.05251217 983.32511234 C-1434.0504179 982.58229383 -1434.04832364 981.83947532 -1434.04616591 981.07414716 C-1434.00022668 964.78481305 -1433.95397606 948.49547983 -1433.90744342 932.2061474 C-1433.89082313 926.38762758 -1433.87421809 920.56910772 -1433.85761723 914.75058784 C-1433.85349095 913.30457281 -1433.84936336 911.85855779 -1433.84523445 910.41254278 C-1433.77989099 887.52707141 -1433.71713023 864.64159393 -1433.65563448 841.75611193 C-1433.59256056 818.29408822 -1433.52585716 794.83207783 -1433.454992 771.37007611 C-1433.41437607 757.89104394 -1433.37642617 744.41201051 -1433.34231178 730.93296028 C-1433.31929964 721.94649619 -1433.29278034 712.96004693 -1433.26337316 703.97360151 C-1433.24672449 698.85610923 -1433.23160813 693.73862504 -1433.22074766 688.62111693 C-1433.21084319 683.96900961 -1433.1964764 679.31693818 -1433.17855817 674.66485501 C-1433.17290082 672.99396369 -1433.16886151 671.32306589 -1433.16665002 669.65216645 C-1433.15437122 661.05605507 -1433.00807042 652.55061806 -1432 644 C-1429.35134176 647.40467793 -1427.55584182 650.88521681 -1425.83984375 654.82421875 C-1425.38760185 655.84554901 -1425.38760185 655.84554901 -1424.92622375 656.88751221 C-1423.92504026 659.15202929 -1422.93128671 661.41972821 -1421.9375 663.6875 C-1421.22471214 665.30365576 -1420.51148669 666.91961858 -1419.79785156 668.53540039 C-1417.52470574 673.68711553 -1415.26184617 678.8433161 -1413 684 C-1412.27040177 685.66213427 -1411.54074762 687.324244 -1410.81103516 688.98632812 C-1407.8703389 695.68526633 -1404.93059041 702.38461829 -1401.99365234 709.08520508 C-1395.97434448 722.81245141 -1389.89660023 736.51325522 -1383.80200195 750.20721436 C-1377.19555566 765.05125324 -1370.61563367 779.90675239 -1364.05450439 794.77087402 C-1358.70137499 806.89752472 -1353.32909526 819.01540717 -1347.9375 831.125 C-1342.33395975 843.71131139 -1336.77974315 856.31860422 -1331.25 868.9375 C-1324.83268277 883.58084275 -1318.37260978 898.20460458 -1311.875 912.8125 C-1311.45353699 913.76007172 -1311.03207397 914.70764343 -1310.59783936 915.68392944 C-1307.01791771 923.73149643 -1303.43517827 931.77780794 -1299.8515625 939.82373047 C-1297.85849212 944.29876096 -1295.86624797 948.77415828 -1293.875 953.25 C-1293.55380188 953.97193542 -1293.23260376 954.69387085 -1292.90167236 955.43768311 C-1287.26577423 968.10988468 -1281.68915681 980.8077111 -1276.12246704 993.51043701 C-1269.72758178 1008.0999048 -1263.27494982 1022.66308969 -1256.79797363 1037.21627808 C-1250.28284461 1051.8552119 -1243.79388711 1066.50543167 -1237.32403564 1081.16442871 C-1231.63801078 1094.04606865 -1225.92841573 1106.9170165 -1220.203125 1119.78125 C-1213.05494377 1135.84259549 -1205.94874544 1151.92134907 -1198.89422607 1168.02404785 C-1192.16231021 1183.38722433 -1185.36017814 1198.71854098 -1178.54003906 1214.04272461 C-1172.3547931 1227.94182145 -1166.19785797 1241.8532158 -1160.05450439 1255.77087402 C-1154.70137499 1267.89752472 -1149.32909526 1280.01540717 -1143.9375 1292.125 C-1138.33395975 1304.71131139 -1132.77974315 1317.31860422 -1127.25 1329.9375 C-1120.83268277 1344.58084275 -1114.37260978 1359.20460458 -1107.875 1373.8125 C-1107.24280548 1375.23385757 -1107.24280548 1375.23385757 -1106.59783936 1376.68392944 C-1103.01791771 1384.73149643 -1099.43517827 1392.77780794 -1095.8515625 1400.82373047 C-1093.85849212 1405.29876096 -1091.86624797 1409.77415828 -1089.875 1414.25 C-1089.55380188 1414.97193542 -1089.23260376 1415.69387085 -1088.90167236 1416.43768311 C-1083.26577423 1429.10988468 -1077.68915681 1441.8077111 -1072.12246704 1454.51043701 C-1066.14375768 1468.15042962 -1060.11754327 1481.76873143 -1054.0625 1495.375 C-1047.57506518 1509.95401743 -1041.09621654 1524.53672902 -1034.64352417 1539.13116455 C-1033.80475867 1541.02807771 -1032.96567308 1542.92484937 -1032.12625122 1544.82147217 C-1030.96607392 1547.44308197 -1029.8070721 1550.06520809 -1028.6484375 1552.6875 C-1028.30669998 1553.45929596 -1027.96496246 1554.23109192 -1027.61286926 1555.02627563 C-1026.31039027 1557.97730142 -1025.03224315 1560.91709399 -1023.86279297 1563.92407227 C-1022.85026143 1566.36027931 -1021.81400212 1567.31770703 -1019.75 1568.9375 C-1015.58184319 1572.39828713 -1011.79940052 1576.14668225 -1008 1580 C-1002.65569313 1585.41532112 -1002.65569313 1585.41532112 -997 1590.5 C-992.44062265 1594.35188776 -988.32753136 1598.64812208 -984.1328125 1602.88671875 C-981.17059157 1605.86800977 -978.21292402 1608.78563316 -975 1611.5 C-970.44062265 1615.35188776 -966.32753136 1619.64812208 -962.1328125 1623.88671875 C-959.17059157 1626.86800977 -956.21292402 1629.78563316 -953 1632.5 C-948.44062265 1636.35188776 -944.32753136 1640.64812208 -940.1328125 1644.88671875 C-937.17059157 1647.86800977 -934.21292402 1650.78563316 -931 1653.5 C-926.44062265 1657.35188776 -922.32753136 1661.64812208 -918.1328125 1665.88671875 C-915.17059157 1668.86800977 -912.21292402 1671.78563316 -909 1674.5 C-904.44062265 1678.35188776 -900.32753136 1682.64812208 -896.1328125 1686.88671875 C-893.17059157 1689.86800977 -890.21292402 1692.78563316 -887 1695.5 C-882.44062265 1699.35188776 -878.32753136 1703.64812208 -874.1328125 1707.88671875 C-871.17059157 1710.86800977 -868.21292402 1713.78563316 -865 1716.5 C-860.44062265 1720.35188776 -856.32753136 1724.64812208 -852.1328125 1728.88671875 C-849.17059157 1731.86800977 -846.21292402 1734.78563316 -843 1737.5 C-838.44062265 1741.35188776 -834.32753136 1745.64812208 -830.1328125 1749.88671875 C-827.17059157 1752.86800977 -824.21292402 1755.78563316 -821 1758.5 C-816.44062265 1762.35188776 -812.32753136 1766.64812208 -808.1328125 1770.88671875 C-805.17059157 1773.86800977 -802.21292402 1776.78563316 -799 1779.5 C-794.44062265 1783.35188776 -790.32753136 1787.64812208 -786.1328125 1791.88671875 C-783.17059157 1794.86800977 -780.21292402 1797.78563316 -777 1800.5 C-772.44062265 1804.35188776 -768.32753136 1808.64812208 -764.1328125 1812.88671875 C-761.17059157 1815.86800977 -758.21292402 1818.78563316 -755 1821.5 C-750.44062265 1825.35188776 -746.32753136 1829.64812208 -742.1328125 1833.88671875 C-739.17059157 1836.86800977 -736.21292402 1839.78563316 -733 1842.5 C-728.44062265 1846.35188776 -724.32753136 1850.64812208 -720.1328125 1854.88671875 C-717.17059157 1857.86800977 -714.21292402 1860.78563316 -711 1863.5 C-706.44062265 1867.35188776 -702.32753136 1871.64812208 -698.1328125 1875.88671875 C-695.17059157 1878.86800977 -692.21292402 1881.78563316 -689 1884.5 C-684.44062265 1888.35188776 -680.32753136 1892.64812208 -676.1328125 1896.88671875 C-673.17059157 1899.86800977 -670.21292402 1902.78563316 -667 1905.5 C-662.44062265 1909.35188776 -658.32753136 1913.64812208 -654.1328125 1917.88671875 C-651.17059157 1920.86800977 -648.21292402 1923.78563316 -645 1926.5 C-640.44062265 1930.35188776 -636.32753136 1934.64812208 -632.1328125 1938.88671875 C-629.17059157 1941.86800977 -626.21292402 1944.78563316 -623 1947.5 C-618.44062265 1951.35188776 -614.32753136 1955.64812208 -610.1328125 1959.88671875 C-607.17059157 1962.86800977 -604.21292402 1965.78563316 -601 1968.5 C-596.44062265 1972.35188776 -592.32753136 1976.64812208 -588.1328125 1980.88671875 C-585.17059157 1983.86800977 -582.21292402 1986.78563316 -579 1989.5 C-574.44062265 1993.35188776 -570.32753136 1997.64812208 -566.1328125 2001.88671875 C-563.17059157 2004.86800977 -560.21292402 2007.78563316 -557 2010.5 C-552.44062265 2014.35188776 -548.32753136 2018.64812208 -544.1328125 2022.88671875 C-541.17059157 2025.86800977 -538.21292402 2028.78563316 -535 2031.5 C-530.44062265 2035.35188776 -526.32753136 2039.64812208 -522.1328125 2043.88671875 C-519.17059157 2046.86800977 -516.21292402 2049.78563316 -513 2052.5 C-508.44062265 2056.35188776 -504.32753136 2060.64812208 -500.1328125 2064.88671875 C-497.17059157 2067.86800977 -494.21292402 2070.78563316 -491 2073.5 C-487.11285239 2076.78396954 -483.57645583 2080.38613844 -480 2084 C-474.6879844 2089.38538279 -474.6879844 2089.38538279 -469.0625 2094.4375 C-464.25103638 2098.50074465 -459.91823345 2103.05826003 -455.49072266 2107.52880859 C-451.83169113 2111.2097669 -448.12268808 2114.72158663 -444.15234375 2118.06640625 C-440.32041767 2121.50888068 -436.75498084 2125.22666402 -433.13256836 2128.88696289 C-430.17043018 2131.86817318 -427.21283566 2134.7857078 -424 2137.5 C-419.44062265 2141.35188776 -415.32753136 2145.64812208 -411.1328125 2149.88671875 C-408.17059157 2152.86800977 -405.21292402 2155.78563316 -402 2158.5 C-397.44062265 2162.35188776 -393.32753136 2166.64812208 -389.1328125 2170.88671875 C-386.17059157 2173.86800977 -383.21292402 2176.78563316 -380 2179.5 C-375.44062265 2183.35188776 -371.32753136 2187.64812208 -367.1328125 2191.88671875 C-364.17059157 2194.86800977 -361.21292402 2197.78563316 -358 2200.5 C-353.44062265 2204.35188776 -349.32753136 2208.64812208 -345.1328125 2212.88671875 C-342.17059157 2215.86800977 -339.21292402 2218.78563316 -336 2221.5 C-331.44062265 2225.35188776 -327.32753136 2229.64812208 -323.1328125 2233.88671875 C-320.17059157 2236.86800977 -317.21292402 2239.78563316 -314 2242.5 C-309.44062265 2246.35188776 -305.32753136 2250.64812208 -301.1328125 2254.88671875 C-298.17059157 2257.86800977 -295.21292402 2260.78563316 -292 2263.5 C-287.44062265 2267.35188776 -283.32753136 2271.64812208 -279.1328125 2275.88671875 C-276.17059157 2278.86800977 -273.21292402 2281.78563316 -270 2284.5 C-265.44062265 2288.35188776 -261.32753136 2292.64812208 -257.1328125 2296.88671875 C-254.17059157 2299.86800977 -251.21292402 2302.78563316 -248 2305.5 C-243.44062265 2309.35188776 -239.32753136 2313.64812208 -235.1328125 2317.88671875 C-232.17059157 2320.86800977 -229.21292402 2323.78563316 -226 2326.5 C-221.44062265 2330.35188776 -217.32753136 2334.64812208 -213.1328125 2338.88671875 C-210.17059157 2341.86800977 -207.21292402 2344.78563316 -204 2347.5 C-199.44062265 2351.35188776 -195.32753136 2355.64812208 -191.1328125 2359.88671875 C-188.17059157 2362.86800977 -185.21292402 2365.78563316 -182 2368.5 C-177.44219837 2372.35055655 -173.33042516 2376.6451405 -169.13720703 2380.88232422 C-165.57533154 2384.46717338 -161.94715549 2387.87407385 -158.0859375 2391.13671875 C-153.1745732 2395.5238363 -148.62026611 2400.3104299 -144 2405 C-140.02678741 2401.24831545 -136.86437469 2397.29389799 -133.75 2392.8125 C-133.24041748 2392.08329346 -132.73083496 2391.35408691 -132.20581055 2390.6027832 C-113.30705192 2363.3400564 -96.04804804 2335.02295477 -80 2306 C-79.51257324 2305.12279297 -79.02514648 2304.24558594 -78.52294922 2303.34179688 C-52.48648681 2256.4258106 -29.3346254 2207.91377173 -9.76123047 2157.94250488 C-9.22754418 2156.58064634 -8.69260602 2155.21927803 -8.15673828 2153.85827637 C28.11686946 2061.72469794 54.38140797 1966.27791886 90 1688 C90.05784668 1686.79102051 90.11569336 1685.58204102 90.17529297 1684.33642578 C95.31749281 1573.35951342 85.79919493 1461.62566915 52 1280 C51.8201355 1279.18448669 51.640271 1278.36897339 51.45495605 1277.52874756 C30.6271458 1183.37844545 0.27184411 1091.55300624 -60 953 C-60.48791016 951.96633301 -60.97582031 950.93266602 -61.47851562 949.86767578 C-73.13509551 925.22560282 -85.12358779 900.71021386 -98.39697266 876.89404297 C-100.18294356 873.66972084 -101.942014 870.4314918 -103.69921875 867.19140625 C-111.739381 852.39963605 -120.16604119 837.91085497 -128.984375 823.5703125 C-132.02652739 818.61927412 -134.98351477 813.62757712 -137.89453125 808.59863281 C-144.92702182 796.46981205 -152.63054068 784.83098233 -160.4785614 773.2225647 C-163.22622189 769.15658605 -165.95003469 765.07545884 -168.66015625 760.984375 C-186.81754011 733.5845668 -205.97205163 707.06246066 -226 681 C-226.91313965 679.81011475 -226.91313965 679.81011475 -227.84472656 678.59619141 C-238.59481304 664.60816244 -249.73210255 650.96379622 -261.16870117 637.53222656 C-263.99671254 634.2066317 -266.76061246 630.83627994 -269.5 627.4375 C-273.62690206 622.36392507 -278.00102558 617.56258858 -282.4453125 612.76953125 C-284.50113722 610.54081607 -286.51616957 608.29232081 -288.5 606 C-292.237421 601.69441998 -296.09192753 597.498722 -299.95800781 593.30908203 C-301.77570269 591.33656755 -303.58049712 589.3551822 -305.37524414 587.36157227 C-314.93863124 576.81633304 -325.04449911 566.80283078 -335.11914062 556.75048828 C-337.74014131 554.13522148 -340.35657294 551.51543651 -342.97172928 548.89432716 C-345.01527254 546.84714739 -347.06121963 544.80238326 -349.10787201 542.75831223 C-350.53592404 541.33123467 -351.96199297 539.90217351 -353.38800049 538.47305298 C-357.90036914 533.97681797 -362.45692834 529.60126331 -367.30015564 525.46173096 C-370.04780271 523.098973 -372.66990393 520.60371091 -375.3125 518.125 C-380.10034265 513.67067687 -385.0121796 509.44733755 -390.11328125 505.3515625 C-393.50587708 502.58790528 -396.81513125 499.7366804 -400.125 496.875 C-405.29257685 492.41449118 -410.54024579 488.10203756 -416 484 C-415.51731435 479.74633271 -412.84485218 477.36995934 -410 474.4375 C-406.32354541 470.54615279 -402.79279333 466.6151103 -399.4375 462.4375 C-396.40642433 458.67161811 -393.27418423 455.05670244 -390 451.5 C-385.88621091 447.0301488 -382.02912703 442.40955107 -378.21484375 437.68359375 C-375.33519113 434.19449084 -372.29306124 430.87003079 -369.24609375 427.52734375 C-366.93812402 424.93037607 -364.74444137 422.26595987 -362.5625 419.5625 C-358.70174863 414.788597 -354.62562925 410.26611572 -350.46875 405.75 C-348.05621896 403.06262366 -345.7674379 400.31034556 -343.5 397.5 C-339.66280969 392.74404581 -335.60614899 388.24495199 -331.46875 383.75 C-329.05621896 381.06262366 -326.7674379 378.31034556 -324.5 375.5 C-320.66280969 370.74404581 -316.60614899 366.24495199 -312.46875 361.75 C-310.05621896 359.06262366 -307.7674379 356.31034556 -305.5 353.5 C-301.66280969 348.74404581 -297.60614899 344.24495199 -293.46875 339.75 C-291.05621896 337.06262366 -288.7674379 334.31034556 -286.5 331.5 C-282.66280969 326.74404581 -278.60614899 322.24495199 -274.46875 317.75 C-272.05621896 315.06262366 -269.7674379 312.31034556 -267.5 309.5 C-263.66280969 304.74404581 -259.60614899 300.24495199 -255.46875 295.75 C-253.05621896 293.06262366 -250.7674379 290.31034556 -248.5 287.5 C-244.66280969 282.74404581 -240.60614899 278.24495199 -236.46875 273.75 C-234.05621896 271.06262366 -231.7674379 268.31034556 -229.5 265.5 C-225.66280969 260.74404581 -221.60614899 256.24495199 -217.46875 251.75 C-215.05621896 249.06262366 -212.7674379 246.31034556 -210.5 243.5 C-206.66280969 238.74404581 -202.60614899 234.24495199 -198.46875 229.75 C-196.05621896 227.06262366 -193.7674379 224.31034556 -191.5 221.5 C-187.66280969 216.74404581 -183.60614899 212.24495199 -179.46875 207.75 C-177.05621896 205.06262366 -174.7674379 202.31034556 -172.5 199.5 C-168.66280969 194.74404581 -164.60614899 190.24495199 -160.46875 185.75 C-158.05621896 183.06262366 -155.7674379 180.31034556 -153.5 177.5 C-149.66280969 172.74404581 -145.60614899 168.24495199 -141.46875 163.75 C-139.05621896 161.06262366 -136.7674379 158.31034556 -134.5 155.5 C-130.66280969 150.74404581 -126.60614899 146.24495199 -122.46875 141.75 C-120.05621896 139.06262366 -117.7674379 136.31034556 -115.5 133.5 C-111.66280969 128.74404581 -107.60614899 124.24495199 -103.46875 119.75 C-101.05621896 117.06262366 -98.7674379 114.31034556 -96.5 111.5 C-92.66280969 106.74404581 -88.60614899 102.24495199 -84.46875 97.75 C-82.05621896 95.06262366 -79.7674379 92.31034556 -77.5 89.5 C-73.66280969 84.74404581 -69.60614899 80.24495199 -65.46875 75.75 C-63.05621896 73.06262366 -60.7674379 70.31034556 -58.5 67.5 C-54.66280969 62.74404581 -50.60614899 58.24495199 -46.46875 53.75 C-44.05621896 51.06262366 -41.7674379 48.31034556 -39.5 45.5 C-35.66280969 40.74404581 -31.60614899 36.24495199 -27.46875 31.75 C-25.05621896 29.06262366 -22.7674379 26.31034556 -20.5 23.5 C-16.60631479 18.67596523 -12.50425596 14.08955368 -8.30859375 9.52734375 C-5.46298837 6.41210402 -2.72195822 3.22337157 0 0 Z " fill="#FFFFFF" transform="translate(4034,842)"/>
<path d="M0 0 C5.32016247 0.0075428 10.64025042 0.0048126 15.96041018 -0.00360411 C53.63274429 -0.06158437 91.20540258 0.37957472 128.84126955 2.25713807 C130.41265422 2.33363922 131.98404468 2.41002144 133.55544192 2.48626405 C142.50917772 2.92540593 151.45710616 3.44151594 160.40376955 4.00713807 C161.73550223 4.09006077 163.06723858 4.1729246 164.39897829 4.25573426 C257.99099622 10.10911271 351.18652183 21.5948645 584.84126955 69.25713807 C585.9075458 69.52397401 586.97382204 69.79080995 588.07240969 70.06573182 C684.43830074 94.22454655 779.3324379 124.99150287 1014.84126955 227.25713807 C1015.9417261 227.79914857 1015.9417261 227.79914857 1017.06441408 228.35210878 C1033.53064604 236.46349136 1049.91250141 244.66181078 1065.96626955 253.56963807 C1070.69576639 256.19297229 1075.48015289 258.70067951 1080.27876955 261.19463807 C1091.2861484 266.94424439 1102.06619324 273.08586527 1112.84126955 279.25713807 C1113.90893557 279.86783143 1114.97660158 280.47852479 1116.07662112 281.10772401 C1134.9083033 291.89015629 1153.53079521 302.97555424 1172.02876955 314.31963807 C1173.04906252 314.94410829 1174.06935549 315.5685785 1175.12056643 316.21197206 C1191.14871336 326.07437072 1206.81215911 336.50273759 1222.46626955 346.94463807 C1223.38714358 347.55864473 1224.3080176 348.17265138 1225.2567969 348.80526429 C1239.23312177 358.1291276 1253.14827751 367.52008971 1266.84126955 377.25713807 C1267.99610842 378.07528993 1267.99610842 378.07528993 1269.17427737 378.9099701 C1279.89006304 386.51567531 1290.36965544 394.41191825 1300.7983008 402.40557557 C1304.57306234 405.29673055 1308.37176432 408.15230781 1312.18965822 410.98614198 C1320.33466406 417.03440361 1328.23308793 423.34920488 1336.06490237 429.79668885 C1338.5445727 431.83536229 1341.03800769 433.85704038 1343.52876955 435.88213807 C1349.11767238 440.46170174 1354.63595563 445.12214611 1360.13667971 449.80694276 C1361.86246285 451.27516846 1363.59201228 452.7388734 1365.3217383 454.20245057 C1373.35263073 461.01823018 1381.19547858 468.01098954 1388.84126955 475.25713807 C1389.80935549 476.11436464 1390.77744143 476.9715912 1391.7748633 477.85479432 C1392.45677737 478.64756776 1393.13869143 479.4403412 1393.84126955 480.25713807 C1393.33224113 484.77920456 1390.25605222 487.56032054 1387.34126955 490.81963807 C1386.240026 492.07658991 1385.13977448 493.33441153 1384.0404883 494.59307557 C1383.49569826 495.21408143 1382.95090822 495.83508729 1382.3896094 496.47491151 C1378.76614301 500.64572587 1375.3193287 504.96520037 1371.84126955 509.25713807 C1366.58212654 515.72920056 1361.25968456 522.13854152 1355.85738283 528.49102479 C1352.46905381 532.48657273 1349.18821285 536.55689817 1345.93501955 540.66338807 C1342.99043871 544.3111524 1339.94675423 547.87167787 1336.9076758 551.44073182 C1333.49639965 555.45677715 1330.19474945 559.54805959 1326.9233008 563.67901307 C1324.51042864 566.66680975 1322.02330876 569.58770004 1319.52876955 572.50713807 C1315.7238279 576.96352987 1312.05328543 581.49885494 1308.46626955 586.13213807 C1303.99142392 591.90467278 1299.28303212 597.43472979 1294.47115237 602.92803651 C1290.81545396 607.10816266 1287.30052972 611.37006081 1283.86470705 615.73370057 C1281.41325777 618.79091338 1278.88230731 621.77433076 1276.34126955 624.75713807 C1273.11483555 628.54602839 1269.93199563 632.35572975 1266.84126955 636.25713807 C1263.29271809 640.73645713 1259.6119008 645.09053844 1255.9076758 649.44073182 C1253.16352422 652.67138119 1250.47379146 655.93411862 1247.84126955 659.25713807 C1244.29271809 663.73645713 1240.6119008 668.09053844 1236.9076758 672.44073182 C1233.49639965 676.45677715 1230.19474945 680.54805959 1226.9233008 684.67901307 C1224.51042864 687.66680975 1222.02330876 690.58770004 1219.52876955 693.50713807 C1215.7238279 697.96352987 1212.05328543 702.49885494 1208.46626955 707.13213807 C1203.99142392 712.90467278 1199.28303212 718.43472979 1194.47115237 723.92803651 C1190.81545396 728.10816266 1187.30052972 732.37006081 1183.86470705 736.73370057 C1181.41325777 739.79091338 1178.88230731 742.77433076 1176.34126955 745.75713807 C1173.11483555 749.54602839 1169.93199563 753.35572975 1166.84126955 757.25713807 C1163.29271809 761.73645713 1159.6119008 766.09053844 1155.9076758 770.44073182 C1153.16352422 773.67138119 1150.47379146 776.93411862 1147.84126955 780.25713807 C1144.29271809 784.73645713 1140.6119008 789.09053844 1136.9076758 793.44073182 C1133.49639965 797.45677715 1130.19474945 801.54805959 1126.9233008 805.67901307 C1124.51042864 808.66680975 1122.02330876 811.58770004 1119.52876955 814.50713807 C1115.7238279 818.96352987 1112.05328543 823.49885494 1108.46626955 828.13213807 C1103.99142392 833.90467278 1099.28303212 839.43472979 1094.47115237 844.92803651 C1090.81545396 849.10816266 1087.30052972 853.37006081 1083.86470705 857.73370057 C1081.41325777 860.79091338 1078.88230731 863.77433076 1076.34126955 866.75713807 C1073.11483555 870.54602839 1069.93199563 874.35572975 1066.84126955 878.25713807 C1063.29271809 882.73645713 1059.6119008 887.09053844 1055.9076758 891.44073182 C1053.16352422 894.67138119 1050.47379146 897.93411862 1047.84126955 901.25713807 C1044.29271809 905.73645713 1040.6119008 910.09053844 1036.9076758 914.44073182 C1033.49639965 918.45677715 1030.19474945 922.54805959 1026.9233008 926.67901307 C1024.51042948 929.6668087 1022.02334037 932.58772769 1019.52876955 935.50713807 C1015.13262559 940.65496225 1010.93136329 945.92973952 1006.7802344 951.27618104 C1002.9993878 956.11923281 999.00985765 960.742163 994.84126955 965.25713807 C990.86668071 964.68671097 988.80905479 962.74620473 985.84126955 960.13213807 C977.97961583 953.37341416 969.654147 947.24395495 961.31832033 941.0872162 C959.78049892 939.95105324 958.24463599 938.81222811 956.71187502 937.66924745 C941.46289381 926.30419478 925.5229837 915.92605977 909.65492922 905.45495301 C908.05055264 904.39535718 906.44797239 903.33304253 904.84566408 902.27032167 C865.50924532 876.1867148 824.1692603 853.04103053 782.18501955 831.52276307 C777.41215756 829.07521277 772.67685408 826.57177469 767.96626955 824.00713807 C758.10216816 818.72681045 747.97114961 814.00160224 737.84126955 809.25713807 C737.15299074 808.9342682 736.46471194 808.61139833 735.75557619 808.27874452 C687.67661597 785.73223423 638.80538292 765.26714366 588.84126955 747.25713807 C588.07999758 746.98232606 587.31872561 746.70751405 586.53438479 746.4243744 C543.51234111 730.91241553 499.96934406 717.25700233 455.84126955 705.25713807 C454.44802462 704.87652223 454.44802462 704.87652223 453.02663332 704.48821718 C348.18042639 675.85414232 240.37806177 657.73397456 -699.19150633 785.36565858 C-701.02596335 786.19697251 -702.8625308 787.02362501 -704.69925779 787.84991151 C-720.83683234 795.11883226 -736.69522466 802.9249242 -752.53373045 810.81963807 C-753.49365904 811.29692353 -754.45358763 811.774209 -755.44260496 812.26595765 C-769.5285054 819.27904761 -783.39047425 826.64069827 -797.15873045 834.25713807 C-798.38116308 834.92966384 -799.60379015 835.60183642 -800.8266992 836.2734955 C-816.49410636 844.90078515 -831.9033511 853.92186537 -847.15873045 863.25713807 C-848.14695799 863.86138612 -849.13518553 864.46563417 -850.15335935 865.08819276 C-879.28156242 882.95784363 -907.53068145 902.18685497 -934.93314451 922.60186464 C-937.05300098 924.17850207 -939.17920349 925.74615714 -941.30716795 927.31182557 C-953.95434622 936.65464725 -966.01305898 946.67850861 -977.97123045 956.88213807 C-978.53986814 957.36682557 -979.10850584 957.85151307 -979.69437498 958.35088807 C-982.03657391 960.36397074 -984.23849823 962.34667632 -986.2954492 964.65557557 C-986.91033201 965.1840912 -987.52521482 965.71260682 -988.15873045 966.25713807 C-991.47865891 965.89170288 -992.96139729 964.77378852 -995.0766992 962.26495057 C-995.60408689 961.64797303 -996.13147459 961.0309955 -996.67484373 960.39532167 C-997.22640135 959.73097108 -997.77795896 959.0666205 -998.34623045 958.38213807 C-998.92356931 957.70102968 -999.50090818 957.01992128 -1000.09574217 956.31817323 C-1004.09012413 951.59006121 -1008.02050942 946.80871495 -1011.91654295 941.99932557 C-1014.46126727 938.88713659 -1017.05491269 935.8198731 -1019.65873045 932.75713807 C-1023.77986993 927.90765085 -1027.82864656 923.00552684 -1031.84623045 918.06963807 C-1034.42019437 914.93914141 -1037.03442131 911.84541347 -1039.65873045 908.75713807 C-1043.77974678 903.90754426 -1047.82864399 899.00553001 -1051.84623045 894.06963807 C-1054.42019589 890.93913956 -1057.03449948 887.84548174 -1059.65873045 884.75713807 C-1065.30730988 878.10680156 -1070.82696552 871.35592801 -1076.33060545 864.58526307 C-1080.8528486 859.03669524 -1085.43756324 853.54799012 -1090.07230467 848.09356385 C-1093.71827976 843.79602183 -1097.28850325 839.44056006 -1100.84623045 835.06963807 C-1103.42019437 831.93914141 -1106.03442131 828.84541347 -1108.65873045 825.75713807 C-1112.77974678 820.90754426 -1116.82864399 816.00553001 -1120.84623045 811.06963807 C-1123.42019437 807.93914141 -1126.03442131 804.84541347 -1128.65873045 801.75713807 C-1132.77974678 796.90754426 -1136.82864399 792.00553001 -1140.84623045 787.06963807 C-1143.42019437 783.93914141 -1146.03442131 780.84541347 -1148.65873045 777.75713807 C-1152.77974678 772.90754426 -1156.82864399 768.00553001 -1160.84623045 763.06963807 C-1163.42019437 759.93914141 -1166.03442131 756.84541347 -1168.65873045 753.75713807 C-1172.77974678 748.90754426 -1176.82864399 744.00553001 -1180.84623045 739.06963807 C-1183.42019639 735.93913895 -1186.03452511 732.84550398 -1188.65873045 729.75713807 C-1192.70885644 724.98802598 -1196.70225158 720.17801375 -1200.6548242 715.32745057 C-1208.46664992 705.74851918 -1216.31845882 696.20483855 -1224.32621092 686.78887635 C-1227.88901449 682.59385625 -1231.3719862 678.33799529 -1234.84623045 674.06963807 C-1237.42019437 670.93914141 -1240.03442131 667.84541347 -1242.65873045 664.75713807 C-1246.77974678 659.90754426 -1250.82864399 655.00553001 -1254.84623045 650.06963807 C-1257.42019437 646.93914141 -1260.03442131 643.84541347 -1262.65873045 640.75713807 C-1266.77974678 635.90754426 -1270.82864399 631.00553001 -1274.84623045 626.06963807 C-1277.42019437 622.93914141 -1280.03442131 619.84541347 -1282.65873045 616.75713807 C-1286.77974678 611.90754426 -1290.82864399 607.00553001 -1294.84623045 602.06963807 C-1297.42019437 598.93914141 -1300.03442131 595.84541347 -1302.65873045 592.75713807 C-1306.77974678 587.90754426 -1310.82864399 583.00553001 -1314.84623045 578.06963807 C-1317.42019437 574.93914141 -1320.03442131 571.84541347 -1322.65873045 568.75713807 C-1326.77856343 563.90893682 -1330.82669009 559.00867962 -1334.8423242 554.07354432 C-1337.43660311 550.91928616 -1340.0747931 547.80510827 -1342.72123045 544.69463807 C-1346.59114846 540.14429491 -1350.35832942 535.52880972 -1354.0688867 530.84698182 C-1356.99093359 527.22582838 -1360.00694531 523.68759239 -1363.0220117 520.14385682 C-1365.93877557 516.71142199 -1368.8156647 513.25120993 -1371.65873045 509.75713807 C-1375.89968111 504.54748105 -1380.23094652 499.41887334 -1384.58060545 494.30010682 C-1387.12320758 491.29906582 -1389.64470417 488.28210854 -1392.15873045 485.25713807 C-1388.47713491 476.56061239 -1379.11297537 470.26315293 -1371.93216795 464.53057557 C-1369.1375523 462.23977796 -1366.49247475 459.84213644 -1363.84623045 457.38213807 C-1359.23601687 453.13916769 -1354.43946086 449.25837144 -1349.48709959 445.43121034 C-1345.48833105 442.33204249 -1341.61427163 439.12360571 -1337.78373045 435.81963807 C-1332.50642893 431.29025618 -1327.03610166 427.08388153 -1321.44779295 422.9465912 C-1316.32703085 419.1521745 -1311.29613677 415.25574751 -1306.28373045 411.31963807 C-1298.1432344 404.9485869 -1289.81781574 398.86991612 -1281.40433592 392.86602479 C-1279.15988474 391.25796508 -1276.92542999 389.63695976 -1274.6938867 388.01104432 C-1248.84422148 369.18660541 -1222.1202973 351.44865979 -1195.15873045 334.25713807 C-1194.47004881 333.81595643 -1193.78136717 333.37477479 -1193.07181638 332.92022401 C-1170.45995407 318.44578403 -1147.41731807 304.66329975 -1124.15873045 291.25713807 C-1123.28764646 290.75408143 -1122.41656248 290.25102479 -1121.51908201 289.73272401 C-1078.42519154 264.87149362 -1034.49341814 240.9210522 -989.43119138 219.79766542 C-986.33929392 218.34213923 -983.25374082 216.87410466 -980.16991514 215.40159303 C-900.29050806 177.26087354 -817.96567141 144.75948899 -610.15873045 79.25713807 C-609.14913267 78.98299073 -608.13953489 78.7088434 -607.09934324 78.42638856 C-526.21295193 56.51365125 -444.06501607 39.7361582 -152.86185545 4.35870057 C-151.94015562 4.29758088 -151.01845579 4.23646119 -150.06882566 4.17348939 C-100.05255956 0.96794748 -50.1013068 -0.07927175 0 0 Z " fill="#F89D19" transform="translate(2505.1587304472923,254.74286192655563)"/>
</svg>
